<?xml version="1.0" encoding="UTF-8"?>
<svg id="Calque_1" data-name="Calque 1" xmlns="http://www.w3.org/2000/svg" viewBox="0 0 250 100">
  <defs>
    <style>
      .cls-1, .cls-2 {
        stroke: #9b9a9a;
      }

      .cls-1, .cls-3 {
        fill: #9b9a9a;
      }

      .cls-2 {
        fill: none;
      }

      .cls-3 {
        stroke-width: 0px;
      }
    </style>
  </defs>
  <path class="cls-1" d="M102.3,83.3c-.3-.3-.6-.4-1-.4h-20.9V28.5c-.2,3.1-.8,6.1-2.1,9-1.4,3.3-3.3,6.1-5.7,8.5-.9.9-1.9,1.7-2.9,2.4,0,0,0,0,0,0,2,2.2,3.7,4.9,4.9,8.1,1.2,3.2,1.8,6.7,1.8,10.4,0,8-2.5,14-7.4,17.9-2.2,1.7-5,3-8.5,4v9.1c0,.4.1.8.4,1,.3.3.6.4,1,.4h39.4c.4,0,.7-.1,1-.4.3-.3.4-.6.4-1v-13.6c0-.4-.1-.8-.4-1Z"/>
  <path class="cls-2" d="M39.2,49.6c7.5,6.2,16.4,8.9,16.4,8.9,1.6.9,2.7,1.9,3.3,2.9.6,1,1.1,1.8,1.3,2.5.2.7.3,1.3.3,1.8s-.1,1.1-.3,1.7c-.2.6-.6,1.4-1.2,2.1-.6.8-1.5,1.5-2.9,2-1.4.5-3,.8-4.9.7-4.4,0-16.4-.7-21.7-1.8-.5-.1-.9,0-1.3.2-.4.3-.6.7-.7,1.2l-1.6,16.1c0,.4.1.8.4,1.2.3.3.6.5,1,.6,5.5.7,11.3,1,17.5,1s11.3-.6,15.6-1.8"/>
  <path class="cls-1" d="M69.7,48.4c1-.7,2-1.5,2.9-2.4,2.4-2.4,4.3-5.2,5.7-8.5,1.2-2.9,1.9-5.9,2.1-9v-1.3c0,0,0-5,0-5,0-.3,0-.5-.3-.7-.2-.2-.4-.3-.7-.3h-27.6c-.3,0-.5.1-.7.3-.2.2-.3.4-.3.7v10.1c0,.3,0,.5.3.7.2.2.4.3.7.3h12c-1.1,1.8-2.6,3.3-4.4,4.4-1.9,1.1-3.9,1.7-6.1,1.7-3.4,0-6.3-1.2-8.7-3.6-2.4-2.4-3.6-5.2-3.6-8.6s1.2-6.2,3.6-8.6c2.4-2.4,5.3-3.6,8.7-3.6s3.9.4,5.6,1.3c1.7.9,3.1,2.1,4.3,3.7.2.2.4.4.7.4.3,0,.5,0,.7-.2l10.3-7.7c.2-.2.3-.4.4-.7,0-.3,0-.5-.2-.7-2.5-3.3-5.6-5.8-9.3-7.7-3.7-1.9-7.8-2.8-12.1-2.8s-7.1.7-10.5,2.1c-3.3,1.4-6.2,3.3-8.6,5.7-2.4,2.4-4.3,5.2-5.7,8.5-1.4,3.3-2.1,6.7-2.1,10.3s.7,7,2.1,10.3c1.4,3.3,3.3,6.1,5.7,8.5,1.4,1.4,3,2.6,4.7,3.6,10.4,4.9,20.6,4.5,30.5-1.2Z"/>
  <path class="cls-3" d="M111.2,45.7c-.2.3-.3.5-.5.6-.2.1-.4.2-.7.2s-.6-.1-.9-.3c-.3-.2-.7-.4-1.2-.7-.5-.3-1-.5-1.6-.7-.6-.2-1.3-.3-2.2-.3s-1.4,0-2,.3-1,.4-1.4.8-.7.7-.9,1.2c-.2.5-.3.9-.3,1.5s.2,1.3.6,1.7.9.8,1.5,1.2c.6.3,1.4.6,2.2.9.8.3,1.6.5,2.5.8.8.3,1.7.6,2.5,1s1.5.9,2.2,1.5c.6.6,1.1,1.3,1.5,2.2.4.8.6,1.9.6,3.1s-.2,2.6-.7,3.7c-.5,1.2-1.1,2.2-2,3-.9.9-1.9,1.5-3.2,2-1.3.5-2.7.7-4.3.7s-1.8,0-2.7-.3c-.9-.2-1.8-.4-2.6-.8-.8-.3-1.6-.7-2.3-1.2-.7-.5-1.4-1-1.9-1.6l1.6-2.6c.1-.2.3-.3.5-.5s.4-.2.7-.2.7.1,1.1.4c.4.3.9.6,1.4.9.5.3,1.2.6,1.9.9.7.3,1.6.4,2.6.4,1.5,0,2.7-.4,3.6-1.1.8-.7,1.3-1.8,1.3-3.2s-.2-1.4-.6-1.9-.9-.9-1.5-1.2c-.6-.3-1.4-.6-2.2-.8-.8-.2-1.6-.5-2.5-.7-.8-.3-1.7-.6-2.5-1s-1.5-.9-2.2-1.5c-.6-.6-1.1-1.4-1.5-2.3-.4-.9-.6-2-.6-3.4s.2-2.1.6-3.1c.4-1,1-1.9,1.8-2.7s1.8-1.4,3-1.9c1.2-.5,2.5-.7,4.1-.7s3.3.3,4.8.8c1.5.5,2.7,1.3,3.7,2.3l-1.4,2.6Z"/>
  <path class="cls-3" d="M116.2,51.8c2.4-2.2,5.2-3.3,8.6-3.3s2.3.2,3.3.6c1,.4,1.8.9,2.4,1.7.7.7,1.2,1.6,1.5,2.5.3,1,.5,2.1.5,3.2v13.1h-2.3c-.5,0-.8,0-1.1-.2-.3-.1-.5-.4-.6-.9l-.4-1.5c-.5.5-1,.9-1.5,1.2-.5.4-1,.7-1.6.9-.5.2-1.1.4-1.7.6-.6.1-1.3.2-2,.2s-1.7-.1-2.4-.4-1.4-.6-1.9-1.1c-.5-.5-1-1.1-1.3-1.8-.3-.7-.4-1.5-.4-2.4s0-1,.3-1.6c.2-.5.5-1,.9-1.5.4-.5.9-.9,1.5-1.3.6-.4,1.4-.8,2.3-1.1.9-.3,2-.6,3.2-.8,1.2-.2,2.6-.3,4.2-.4v-1.2c0-1.4-.3-2.4-.9-3.1-.6-.7-1.4-1-2.6-1s-1.5,0-2,.3c-.5.2-1,.4-1.4.6-.4.2-.8.4-1.1.6-.3.2-.7.3-1.1.3s-.6,0-.9-.3c-.2-.2-.4-.4-.6-.6l-.9-1.6ZM127.6,60.8c-1.4,0-2.7.2-3.6.4-1,.2-1.8.4-2.4.7-.6.3-1,.6-1.3,1-.3.4-.4.8-.4,1.2,0,.9.3,1.5.8,1.9.5.4,1.2.6,2,.6s1.9-.2,2.7-.6c.7-.4,1.5-.9,2.2-1.7v-3.5Z"/>
  <path class="cls-3" d="M142.2,51.5c.8-.9,1.8-1.6,2.8-2.1,1-.5,2.2-.8,3.5-.8s2.3.2,3.2.7c1,.5,1.8,1.1,2.5,2,.7.9,1.2,1.9,1.6,3.2.4,1.3.5,2.7.5,4.2s-.2,3.2-.6,4.6c-.4,1.4-1,2.5-1.8,3.5-.8,1-1.7,1.7-2.8,2.3-1.1.5-2.3.8-3.6.8s-1.2,0-1.8-.2c-.5-.1-1-.3-1.5-.5-.4-.2-.9-.5-1.2-.8s-.7-.7-1.1-1.1l-.2,1.4c0,.3-.2.6-.4.7s-.5.2-.8.2h-3.3v-30h5v11.8ZM142.2,64.3c.6.7,1.2,1.2,1.8,1.5.7.3,1.4.4,2.1.4s1.5-.1,2.1-.4,1.1-.7,1.6-1.3c.4-.6.8-1.3,1-2.2s.3-2,.3-3.3c0-2.3-.4-3.9-1.1-4.9-.8-1-1.8-1.5-3.2-1.5s-1.8.2-2.5.7c-.7.4-1.4,1.1-2,1.8v9.3Z"/>
  <path class="cls-3" d="M164.8,52.5c.6-1.2,1.4-2.2,2.3-2.9.9-.7,1.9-1.1,3.1-1.1s1.7.2,2.3.6l-.3,3.7c0,.2-.2.4-.3.5-.1.1-.3.2-.5.2s-.5,0-.9,0-.8-.1-1.2-.1c-.6,0-1,0-1.5.2-.4.2-.8.4-1.2.7-.3.3-.6.7-.9,1.1-.3.4-.5.9-.7,1.5v12.8h-5v-20.7h2.9c.5,0,.9,0,1.1.3.2.2.3.5.4,1l.3,2.3Z"/>
  <path class="cls-3" d="M181,42.9c0,.4,0,.8-.3,1.2-.2.4-.4.7-.7,1s-.6.5-1,.7c-.4.2-.8.3-1.3.3s-.8,0-1.2-.3-.7-.4-1-.7c-.3-.3-.5-.6-.7-1-.2-.4-.3-.8-.3-1.2s0-.9.3-1.3.4-.7.7-1c.3-.3.6-.5,1-.7s.8-.3,1.2-.3.9,0,1.3.3c.4.2.7.4,1,.7s.5.6.7,1c.2.4.3.8.3,1.3ZM180.3,48.9v20.7h-5v-20.7h5Z"/>
  <path class="cls-3" d="M190.1,51.5c.4-.4.9-.8,1.3-1.2s1-.7,1.5-.9c.5-.2,1.1-.4,1.7-.6.6-.1,1.2-.2,1.9-.2,1.1,0,2.1.2,3,.6.9.4,1.6.9,2.2,1.6.6.7,1,1.5,1.3,2.5s.5,2,.5,3.2v13.2h-5v-13.2c0-1.3-.3-2.2-.9-2.9-.6-.7-1.5-1-2.6-1s-1.7.2-2.4.6c-.8.4-1.5.9-2.1,1.6v15h-5v-20.7h3c.6,0,1.1.3,1.3.9l.3,1.6Z"/>
  <path class="cls-3" d="M207.7,51.8c2.4-2.2,5.2-3.3,8.6-3.3s2.3.2,3.3.6c1,.4,1.8.9,2.4,1.7.7.7,1.2,1.6,1.5,2.5.3,1,.5,2.1.5,3.2v13.1h-2.3c-.5,0-.8,0-1.1-.2-.3-.1-.5-.4-.6-.9l-.4-1.5c-.5.5-1,.9-1.5,1.2-.5.4-1,.7-1.6.9-.5.2-1.1.4-1.7.6-.6.1-1.3.2-2,.2s-1.7-.1-2.4-.4-1.4-.6-1.9-1.1c-.5-.5-1-1.1-1.3-1.8-.3-.7-.4-1.5-.4-2.4s0-1,.3-1.6c.2-.5.5-1,.9-1.5.4-.5.9-.9,1.5-1.3.6-.4,1.4-.8,2.3-1.1.9-.3,2-.6,3.2-.8,1.2-.2,2.6-.3,4.2-.4v-1.2c0-1.4-.3-2.4-.9-3.1-.6-.7-1.4-1-2.6-1s-1.5,0-2,.3c-.5.2-1,.4-1.4.6-.4.2-.8.4-1.1.6-.3.2-.7.3-1.1.3s-.6,0-.9-.3c-.2-.2-.4-.4-.6-.6l-.9-1.6ZM219.1,60.8c-1.4,0-2.7.2-3.6.4-1,.2-1.8.4-2.4.7-.6.3-1,.6-1.3,1-.3.4-.4.8-.4,1.2,0,.9.3,1.5.8,1.9.5.4,1.2.6,2,.6s1.9-.2,2.7-.6c.7-.4,1.5-.9,2.2-1.7v-3.5Z"/>
</svg>