<?xml version="1.0" encoding="UTF-8"?><svg id="uuid-fc72c239-e8d0-44d4-be06-fe4aa1ebb191" xmlns="http://www.w3.org/2000/svg" viewBox="0 0 64 64"><defs><style>.uuid-8bab417b-ceeb-4ec4-a286-73ed1d233db4{fill:#7fb0ba;}</style></defs><path class="uuid-8bab417b-ceeb-4ec4-a286-73ed1d233db4" d="M22.9,64c-2.6,0-5.1-.7-7.1-2.2-3.7-2.6-5.6-6.9-5.7-12.7,0-1.5,1.1-2.7,2.6-2.7,1.5,0,2.7,1.1,2.7,2.6,0,4.1,1.2,6.9,3.5,8.5,2.1,1.5,4.9,1.6,7.5,.5,.9-.4,1.7-.9,2.5-1.3,1.9-1.2,3.1-3.4,3.1-5.8,0-2.2,.8-4.2,2.3-5.8l6.6-6.9c4.6-4.8,7.3-10.8,7.8-17v-.2c.3-3.6-1.1-7.2-3.7-9.9h-.1c-3.9-4.1-9.2-6.1-14.6-5.7-5.1,.4-9.6,2.8-12.6,6.8-.2,.2-.3,.4-.5,.7-.5,.7-.7,1.4-.9,2.2-.3,2.5-.3,5.2,0,8.1,.2,1.5-.9,2.8-2.3,3-1.5,.2-2.8-.9-3-2.3-.4-3.3-.4-6.5,0-9.4,.2-1.6,.8-3.2,1.7-4.6,.2-.3,.4-.6,.6-.8C17.2,3.7,23,.5,29.7,0c7-.5,13.9,2.1,18.8,7.1l.2,.2c3.7,3.8,5.5,8.9,5.2,14v.2c-.6,7.4-3.9,14.6-9.3,20.3l-6.6,6.9c-.5,.5-.8,1.2-.8,2,0,4.2-2.1,8.2-5.6,10.4-.9,.6-1.9,1.1-3,1.6-1.8,.9-3.8,1.3-5.7,1.3Z"/><path class="uuid-8bab417b-ceeb-4ec4-a286-73ed1d233db4" d="M42,20.8c.7-1.3,.6-2.7,.4-4.1s-.9-3.1-2-4.4-3-2.4-5.3-2.7-2.1,0-3.2,.2c-2.9,.6-5.1,1.8-6.5,3.7s-1.3,2.7-1.3,4.1-.1,3.1-.2,4.2-.4,1-.9,1.3c-1.9,.9-3.4,2.3-4.4,4.3s-.8,2.5-.4,3.7,1.2,2,2.3,2.5,.5,.7,.2,1c-.9,.9-1.6,1.8-2,2.9s-.5,2.8,0,4.2,1.7,2.9,3.5,3.5,3.9,.3,5.5-.6,3-2.5,3.7-4.5,.6-4.5-.2-6.6-1-2.3-1.8-3.3-.6-1-.6-1.5c0,0,.1-6.2,.2-9.1s.8-2.6,2-3.2c2-.9,4.7-.2,5.9,2.1s.7,1.3,1,1.9c.5,.9,1.4,1.5,2.4,1.4s1.2-.4,1.7-1Z"/></svg>