<?xml version="1.0" encoding="UTF-8"?><svg id="uuid-26df60fa-26fc-4df4-8d9b-6943922a91d2" xmlns="http://www.w3.org/2000/svg" viewBox="0 0 214.4 68.8"><defs><style>.uuid-4f3f52ab-411e-4e77-bb32-bd70b9c65cd1{fill:#f5f5f5;}</style></defs><path class="uuid-4f3f52ab-411e-4e77-bb32-bd70b9c65cd1" d="M102.9,30.5c-.3-.9-.6-1.8-.8-2.7-.3-.9-.6-1.8-.8-2.6-.2-.8-.4-1.6-.6-2.3h0c-.3,1.3-.6,2.5-1,3.8-.4,1.4-.9,2.9-1.3,4.3-.4,1.5-.8,2.9-1.3,4.1h7.4c-.2-.6-.4-1.4-.7-2.1-.3-.8-.5-1.6-.8-2.5Z"/><path class="uuid-4f3f52ab-411e-4e77-bb32-bd70b9c65cd1" d="M129.8,0h-45.1C77.8,0,72.3,5.6,72.3,12.5V56.3c0,6.9,5.5,12.5,12.4,12.5h45.1c6.8,0,12.4-5.6,12.4-12.5V12.5C142.2,5.6,136.6,0,129.8,0Zm-14.8,48.5h-6.1c-.2,0-.4-.1-.5-.3l-2.4-7h-10.8l-2.2,6.9c0,.3-.3,.4-.6,.4h-5.5c-.3,0-.4-.2-.3-.5l9.4-27.2c0-.3,.2-.6,.3-1,.1-.6,.2-1.3,.2-1.9,0-.1,0-.3,.2-.3h7.5c.2,0,.3,0,.4,.2l10.6,30.3c0,.3,0,.5-.3,.5Zm10-.3c0,.3-.1,.5-.4,.5h-5.7c-.3,0-.4-.2-.4-.5V25.5c0-.3,.1-.4,.4-.4h5.8c.3,0,.4,.1,.4,.4v22.6Zm-.6-26.5c-.7,.7-1.7,1.1-2.6,1-1,0-1.9-.4-2.6-1-.7-.7-1-1.7-1-2.7,0-1,.3-1.9,1-2.6s1.6-1,2.6-1,2,.4,2.6,1c.6,.7,1,1.6,1,2.6,0,1-.3,2-1,2.7Z"/></svg>