<?xml version="1.0" encoding="UTF-8"?><svg id="uuid-f1007260-6540-4bed-b5ec-28f4a5dac880" xmlns="http://www.w3.org/2000/svg" viewBox="0 0 64 64"><defs><style>.uuid-8a37468c-0a92-4e93-87e1-a28f50593e8f{fill:#7fb0ba;}</style></defs><rect class="uuid-8a37468c-0a92-4e93-87e1-a28f50593e8f" x="32" y="16.2" width="26.1" height="8.8" rx="3.8" ry="3.8" transform="translate(9.9 55.4) rotate(-69.3)"/><path class="uuid-8a37468c-0a92-4e93-87e1-a28f50593e8f" d="M61.5,23.1l-4.3,11.4c-.8,2.2-3.3,3.4-5.6,2.5h0c-2.2-.8-3.4-3.3-2.5-5.6l4.3-11.4c.8-2.2,3.3-3.4,5.6-2.5h0c2.2,.8,3.4,3.3,2.5,5.6Z"/><path class="uuid-8a37468c-0a92-4e93-87e1-a28f50593e8f" d="M30.4,15.2c-.5-.2-.7-.8-.5-1.3l4.3-11.1c.8-2.2,3.3-3.4,5.6-2.5h0c2.2,.8,3.4,3.3,2.5,5.6l-4.5,12.2c-.3,.9-1.5,1.1-2.2,.5-1.5-1.4-3.2-2.5-5.1-3.4Z"/><path class="uuid-8a37468c-0a92-4e93-87e1-a28f50593e8f" d="M20,9.1c-.7-.3-1-1.1-.7-1.8l1.8-4.5c.8-2.2,3.3-3.4,5.6-2.5h0c2.2,.8,3.4,3.3,2.5,5.6l-1.6,5.2c-.2,.8-1.2,1.2-2,.9l-5.7-2.8Z"/><path class="uuid-8a37468c-0a92-4e93-87e1-a28f50593e8f" d="M45.9,64H18.4c-3.2,0-5.8-2.6-5.8-5.8v-8.4c0-.6-.3-1.2-.7-1.7l-6.5-6c-3-3.2-3.9-7.8-2.2-11.8l6.2-15.2c1.7-3.8,6.3-5.4,10-3.5l12.7,6.5c1.9,.9,3.1,2.8,3.2,4.9s-1.4,4.4-4,4.9-4.6,0-6.5-1.3l-5.2-3.2c-.6-.4-1.5-.1-1.8,.6h0c-.2,.6,0,1.2,.5,1.5l7,4.5c.2,.2,.5,.3,.8,.3,2.8,.6,5.4,0,7.8-1.5s.9,0,1,.4c1.2,6.3,4.9,8.3,11,6.1,.4-.2,.9,0,1.1,.5,1.3,3.4,3.7,4.8,7.1,4.2s1,.5,.8,1l-7.2,15.2c-.1,.3-.2,.6-.2,1v5.3c0,.7-.6,1.3-1.3,1.3Z"/></svg>