<?xml version="1.0" encoding="UTF-8"?><svg id="uuid-b11cd320-b82c-4e4b-8102-8084b245f4f9" xmlns="http://www.w3.org/2000/svg" viewBox="0 0 64 64"><defs><style>.uuid-e2f065c6-9d03-412a-b863-12cc8708fdd2{fill:#7fb0ba;}</style></defs><path class="uuid-e2f065c6-9d03-412a-b863-12cc8708fdd2" d="M52.4,25c-1.5,0-2.6,1.1-2.6,2.8s1.1,2.7,2.6,2.7,2.6-1.2,2.6-2.7-1.1-2.8-2.6-2.8Z"/><path class="uuid-e2f065c6-9d03-412a-b863-12cc8708fdd2" d="M53.1,0c-2.3,0-4.8,.7-6.3,1.8l1.1,2.8c1.1-.8,2.8-1.4,4.4-1.4,2.8,0,4.2,1.5,4.2,3.8s-1.1,3.7-3.1,6c-2.2,2.6-3,5.2-2.7,7.6v1.1h3.5v-1.1c-.2-2.2,.5-4.2,2.5-6.4,2.1-2.5,3.8-4.6,3.8-7.6s-2.3-6.4-7.3-6.4Z"/><path class="uuid-e2f065c6-9d03-412a-b863-12cc8708fdd2" d="M51,55.1c-4.3-3.7-9.1-6.9-14.5-9.7-.5-.3-.9-.8-.9-1.4v-2.5c0-.6,.3-1.2,.8-1.5,.8-.6,1.6-1.3,2.2-2,2.1-2.3,3.1-5.4,3.3-8.5,.1-2.6,.1-5.2,0-7.8-.2-2.9-1.4-5.7-3.7-7.5-2.4-1.9-5.5-2.9-9.2-3-3.7,.1-6.8,1.1-9.2,3-2.3,1.8-3.5,4.6-3.7,7.5-.1,2.6-.1,5.2,0,7.8,.1,3.1,1.2,6.2,3.3,8.5,.6,.7,1.4,1.4,2.2,2,.5,.4,.8,.9,.8,1.5v2.5c0,.6-.4,1.1-.9,1.4-5.4,2.8-10.2,6-14.5,9.7-2.1,1.8-3.3,4.5-3.3,7.2v1.7H54.2v-1.7c0-2.8-1.2-5.4-3.3-7.2Z"/></svg>