<?xml version="1.0" encoding="UTF-8"?><svg id="uuid-9d5a24d9-03d8-4bed-b9cc-161c33ceb7cf" xmlns="http://www.w3.org/2000/svg" viewBox="0 0 214.4 68.8"><defs><style>.uuid-26e46a0d-1ad1-4eeb-b2d1-afa37c49fceb{fill:#f5f5f5;}</style></defs><polygon class="uuid-26e46a0d-1ad1-4eeb-b2d1-afa37c49fceb" points="90.5 43.4 93.8 43.4 93.8 31.1 101.8 31.1 101.8 27.9 93.8 27.9 93.8 20.9 104.2 20.9 104.2 17.7 90.5 17.7 90.5 43.4"/><path class="uuid-26e46a0d-1ad1-4eeb-b2d1-afa37c49fceb" d="M110.1,18.6c-1.2,0-2.2,1-2.2,2.2s1,2.2,2.2,2.2,2.2-1,2.2-2.2-1-2.2-2.2-2.2Z"/><rect class="uuid-26e46a0d-1ad1-4eeb-b2d1-afa37c49fceb" x="108.5" y="26.1" width="3.3" height="17.3"/><path class="uuid-26e46a0d-1ad1-4eeb-b2d1-afa37c49fceb" d="M128.9,27.7c-1.2-1.3-2.9-2-4.9-2-4.4,0-7.5,3.7-7.5,8.1s3.1,8.1,7.5,8.1,3.7-.8,4.9-2v2.3c0,2.9-2.3,5.3-5.2,5.3s-2.1-.4-2.9-1l-1.7,2.9c1.3,.9,2.9,1.3,4.6,1.3,4.7,0,8.5-3.8,8.5-8.5V26.1h-3.3v1.5Zm-4.5,11c-2.4,0-4.5-2.2-4.5-4.9s2.1-4.9,4.5-4.9,4.5,2.2,4.5,4.9-2.1,4.9-4.5,4.9Z"/><path class="uuid-26e46a0d-1ad1-4eeb-b2d1-afa37c49fceb" d="M155.3,25.6c-2.3,0-4.1,1.2-5.3,2.9-1-1.8-2.8-2.9-5.1-2.9s-3.3,.8-4.3,2.1v-1.6h-3.3v17.3h3.3v-10.9c0-2,1.6-3.6,3.5-3.6s3.5,1.7,3.5,3.6v10.9h3.3v-10.9c0-2,1.6-3.6,3.5-3.6s3.5,1.7,3.5,3.6v10.9h3.3v-10.9h0c0-3.8-2.4-6.9-6.1-6.9Z"/><path class="uuid-26e46a0d-1ad1-4eeb-b2d1-afa37c49fceb" d="M179.1,26.1v2c-1.5-1.5-3.5-2.5-5.8-2.5-4.9,0-8.4,4.2-8.4,9.1s3.5,9.1,8.4,9.1,4.4-.9,5.8-2.5v2h3.3V26.1h-3.3Zm-5.5,14.5c-2.9,0-5.5-2.6-5.5-5.9s2.5-5.9,5.5-5.9,5.5,2.6,5.5,5.9-2.5,5.9-5.5,5.9Z"/><path class="uuid-26e46a0d-1ad1-4eeb-b2d1-afa37c49fceb" d="M54.9,34.4c0,6.3,5.1,11.5,11.5,11.5s11.5-5.1,11.5-11.5-5.1-11.5-11.5-11.5-11.5,5.1-11.5,11.5Z"/><path class="uuid-26e46a0d-1ad1-4eeb-b2d1-afa37c49fceb" d="M32,57.3c0,6.3,5.1,11.5,11.5,11.5s11.5-5.1,11.5-11.5v-11.5h-11.5c-6.3,0-11.5,5.1-11.5,11.5Z"/><path class="uuid-26e46a0d-1ad1-4eeb-b2d1-afa37c49fceb" d="M77.8,11.5C77.8,5.1,72.7,0,66.4,0h-22.9C37.1,0,32,5.1,32,11.5s5.1,11.5,11.5,11.5c-6.3,0-11.5,5.1-11.5,11.5s5.1,11.5,11.5,11.5h11.5V22.9h11.5c6.3,0,11.5-5.1,11.5-11.5Z"/></svg>