<?xml version="1.0" encoding="UTF-8"?><svg id="uuid-5ca3d549-7dad-40e3-b2f1-138a554a87b8" xmlns="http://www.w3.org/2000/svg" viewBox="0 0 64 64"><defs><style>.uuid-4bf2bcba-f5b0-4bf5-9004-d1b9f7036a07{fill:#7fb0ba;}</style></defs><rect class="uuid-4bf2bcba-f5b0-4bf5-9004-d1b9f7036a07" x="8.1" y="0" width="47.6" height="8.1" rx="3.9" ry="3.9"/><rect class="uuid-4bf2bcba-f5b0-4bf5-9004-d1b9f7036a07" x="8.3" y="55.9" width="47.6" height="8.1" rx="3.9" ry="3.9"/><path class="uuid-4bf2bcba-f5b0-4bf5-9004-d1b9f7036a07" d="M27,33.9c-6.6,2-11.6,7.8-12.5,14.8h-.1v5.5H49.9v-5.5h-.1c-.9-7.1-5.9-12.9-12.6-14.8-.9-1.1-.9-2.4,0-3.9,6.6-2,11.6-7.8,12.5-14.8h.1v-5.4H14.2v5.4h.1c.9,7.2,6.1,13.1,13,14.9,.6,1.3,.5,2.5-.3,3.8Z"/></svg>