<?xml version="1.0" encoding="UTF-8"?><svg id="uuid-92aacad0-f329-4286-a84e-a076c0821452" xmlns="http://www.w3.org/2000/svg" viewBox="0 0 214.4 68.8"><defs><style>.uuid-2ed9acd8-73b0-4e13-951d-3bf00fececdf{fill:#f5f5f5;}</style></defs><path class="uuid-2ed9acd8-73b0-4e13-951d-3bf00fececdf" d="M101,23.8c-1.1-.4-2.2-.6-3.4-.6-.7,0-1.4,0-2,0-.6,0-1,0-1.2,0v9.9c.4,0,.8,0,1.1,0h1.5c1.1,0,2.2-.2,3.3-.5,.9-.3,1.7-.8,2.4-1.6,.6-.7,.9-1.7,.9-3,0-.9-.2-1.8-.7-2.6-.5-.8-1.2-1.4-2-1.7Z"/><path class="uuid-2ed9acd8-73b0-4e13-951d-3bf00fececdf" d="M129.5,0h-44.5c-6.7,0-12.2,5.6-12.2,12.5V56.3c0,6.9,5.5,12.5,12.2,12.5h44.5c6.7,0,12.2-5.6,12.2-12.5V12.5c0-6.9-5.5-12.5-12.2-12.5Zm-21.2,34.3c-1.1,1.6-2.8,2.9-4.6,3.6-2,.7-4.1,1-6.5,1s-1.1,0-1.4,0c-.3,0-.7,0-1.2,0v9.4c0,.2-.1,.4-.3,.4h-5.6c-.2,0-.3-.1-.3-.4V18c0-.2,0-.3,.3-.3,.5,0,.9,0,1.6,0,.7,0,1.4,0,2.2,0,.8,0,1.6,0,2.5,0,.9,0,1.7,0,2.6,0,2.4,0,4.3,.3,5.9,.9,1.4,.5,2.8,1.3,3.8,2.4,.9,.9,1.6,2.1,2.1,3.4,.4,1.2,.7,2.5,.7,3.8,0,2.5-.6,4.6-1.7,6.3Zm20.3,11.4c-.8,1.2-1.9,2.1-3.2,2.6-1.4,.6-3.1,.9-5.2,.9s-2.6-.1-3.9-.4c-1-.2-2-.5-2.9-.9-.2-.1-.3-.3-.3-.6v-5.1c0,0,0-.2,.1-.3,0,0,.2,0,.3,0,1.1,.7,2.3,1.1,3.6,1.4,1.1,.3,2.2,.4,3.4,.4s1.9-.1,2.4-.4c.5-.2,.8-.7,.8-1.2s-.2-.8-.7-1.2c-.5-.4-1.4-.8-2.8-1.4-1.5-.5-2.8-1.2-4.1-2.1-.9-.6-1.6-1.5-2.2-2.5-.5-.9-.7-2-.7-3,0-1.3,.3-2.5,1-3.6,.7-1.2,1.8-2.1,3-2.7,1.3-.7,3-1,5.1-1s2.4,0,3.6,.3c.9,.1,1.7,.4,2.5,.7,.1,0,.2,.1,.3,.3,0,.1,0,.2,0,.4v4.8c0,.1,0,.2-.1,.3-.3,0-.4,0-.5,0-.9-.5-1.8-.8-2.8-1-1.1-.2-2.1-.4-3.2-.4-.6,0-1.2,0-1.7,.2-.4,0-.7,.3-.9,.6-.1,.2-.2,.5-.2,.8s.1,.5,.3,.8c.3,.3,.6,.6,1,.8,.7,.4,1.3,.7,2,1,1.5,.5,3,1.3,4.4,2.1,.9,.6,1.7,1.4,2.3,2.4,.5,.9,.7,2,.7,3,0,1.4-.4,2.8-1.1,3.9Z"/></svg>