<?xml version="1.0" encoding="UTF-8"?><svg id="uuid-51a1d0a3-ce20-4c2d-a334-8dbeb878c02f" xmlns="http://www.w3.org/2000/svg" viewBox="0 0 64 64"><defs><style>.uuid-28015d54-ba1f-4628-97db-8a900d8fc138{fill:#7fb0ba;}</style></defs><path class="uuid-28015d54-ba1f-4628-97db-8a900d8fc138" d="M30.9,49.1l9.7,9.7c2,2,5.2,2,7.1,0l.4-.4c2-2,2-5.2,0-7.1l-9.8-9.8c1.6-2.9,2.6-6.3,2.6-9.8,0-11.1-9-20.1-20.1-20.1S.6,20.6,.6,31.7s9,20.1,20.1,20.1,7.1-1,10.1-2.7ZM5.1,31.7c0-8.7,7-15.7,15.7-15.7s15.7,7,15.7,15.7-7,15.7-15.7,15.7-15.7-7-15.7-15.7Z"/><path class="uuid-28015d54-ba1f-4628-97db-8a900d8fc138" d="M52,16.4c-2.6,0-4.8-2.1-4.8-4.8V.3S17.5,.3,17.5,.3c-2.8,0-5,2.2-5,5v6.7c2.5-1.1,5.3-1.7,8.3-1.7,11.8,0,21.5,9.6,21.5,21.5s-.8,6.6-2.3,9.6l9.1,9.1c1.2,1.2,1.9,2.8,1.9,4.5s-.7,3.3-1.9,4.5l-.4,.4c-1.2,1.2-2.8,1.9-4.5,1.9s-3.3-.7-4.5-1.9l-9-9c-3,1.6-6.4,2.4-9.9,2.4s-5.7-.6-8.3-1.7v7.2c0,2.8,2.2,5,5,5H58.4c2.8,0,5-2.2,5-5V16.4h-.4s-10.9,0-10.9,0Zm-31.8-7.7c-.6,0-1.1-.5-1.1-1.1s.5-1.1,1.1-1.1h23.1c.6,0,1.1,.5,1.1,1.1s-.5,1.1-1.1,1.1H20.2Zm14.9,5.2c0-.6,.5-1.1,1.1-1.1h7c.6,0,1.1,.5,1.1,1.1s-.5,1.1-1.1,1.1h-7c-.6,0-1.1-.5-1.1-1.1Zm22,31.6c0,.6-.5,1.1-1.1,1.1h-8.7c-.6,0-1.1-.5-1.1-1.1h0c0-.6,.5-1.1,1.1-1.1h8.7c.6,0,1.1,.5,1.1,1.1h0Zm-.8-5.2h-13c-.6,0-1.1-.5-1.1-1.1s.5-1.1,1.1-1.1h13c.6,0,1.1,.5,1.1,1.1s-.5,1.1-1.1,1.1Zm0-6.3h-11.9c-.6,0-1.1-.5-1.1-1.1s.5-1.1,1.1-1.1h11.9c.6,0,1.1,.5,1.1,1.1s-.5,1.1-1.1,1.1Zm0-6.3h-12.4c-.6,0-1.1-.5-1.1-1.1s.5-1.1,1.1-1.1h12.4c.6,0,1.1,.5,1.1,1.1s-.5,1.1-1.1,1.1Zm1.4-7.4c0,.6-.5,1.1-1.1,1.1h-15.4c-.6,0-1.1-.5-1.1-1.1h0c0-.6,.5-1.1,1.1-1.1h15.4c.6,0,1.1,.5,1.1,1.1h0Z"/><path class="uuid-28015d54-ba1f-4628-97db-8a900d8fc138" d="M29.7,32c0-.6-.5-1.1-1.1-1.1H12.7c-.6,0-1.1,.5-1.1,1.1s.5,1.1,1.1,1.1h15.9c.6,0,1.1-.5,1.1-1.1Z"/><path class="uuid-28015d54-ba1f-4628-97db-8a900d8fc138" d="M17.3,26.6h7c.6,0,1.1-.5,1.1-1.1h0c0-.6-.5-1.1-1.1-1.1h-7c-.6,0-1.1,.5-1.1,1.1h0c0,.6,.5,1.1,1.1,1.1Z"/><path class="uuid-28015d54-ba1f-4628-97db-8a900d8fc138" d="M25.1,38.2c0-.6-.5-1.1-1.1-1.1h-7c-.6,0-1.1,.5-1.1,1.1s.5,1.1,1.1,1.1h7c.6,0,1.1-.5,1.1-1.1Z"/><path class="uuid-28015d54-ba1f-4628-97db-8a900d8fc138" d="M52.4,.3h-3.9V11.6c0,1.9,1.5,3.5,3.5,3.5h9.6s1.8,0,1.8,0v-3.9L52.4,.3Z"/></svg>