<?xml version="1.0" encoding="UTF-8"?><svg id="uuid-59fad755-2943-48a5-b24e-22af0e72ea71" xmlns="http://www.w3.org/2000/svg" viewBox="0 0 64 64"><defs><style>.uuid-e6a58234-add6-4bb6-8bdb-11de9f38704d{fill:#7fb0ba;}</style></defs><path class="uuid-e6a58234-add6-4bb6-8bdb-11de9f38704d" d="M19.3,24.2l1.6,1.6c.4,.4,.5,1,.2,1.5l-1.3,3.1c-.1,.5-.7,.9-1.2,.9h-2.2c-.5,0-.9,.4-.9,.9v2.5c0,.5,.4,.9,.9,.9h2.2c.5,0,1,.4,1.2,.9l1.3,3.1c.2,.4,.1,1.1-.2,1.5l-1.6,1.6c-.4,.4-.4,1,0,1.3l1.8,1.8c.4,.4,.9,.4,1.3,0l1.6-1.6c.4-.4,1-.5,1.5-.2l3.1,1.3c.5,.1,.9,.7,.9,1.2v2.2c0,.5,.4,.9,.9,.9h2.5c.5,0,.9-.4,.9-.9v-2.2c0-.5,.4-1,.9-1.2l3.1-1.3c.4-.2,1.1-.2,1.5,.2l1.6,1.6c.4,.4,.9,.4,1.3,0l1.8-1.8c.4-.4,.4-.9,0-1.3l-1.6-1.6c-.4-.4-.5-1-.2-1.5l1.3-3.1c.1-.5,.7-.9,1.2-.9h2.2c.5,0,.9-.4,.9-.9v-2.5c0-.5-.4-.9-.9-.9h-2.2c-.5,0-1-.4-1.2-.9l-1.3-3.1c-.2-.4-.2-1.1,.2-1.5l1.6-1.6c.4-.4,.4-1,0-1.3l-1.8-1.8c-.4-.4-1-.4-1.3,0l-1.6,1.6c-.4,.4-1,.5-1.5,.2l-3.1-1.3c-.5-.1-.9-.7-.9-1.2v-2.2c0-.5-.4-.9-.9-.9h-2.5c-.5,0-.9,.4-.9,.9v2.2c0,.5-.4,1-.9,1.2l-3.1,1.3c-.4,.2-1.1,.1-1.5-.2l-1.6-1.6c-.4-.4-.9-.4-1.3,0l-1.8,1.8c-.4,.4-.4,.9,0,1.3Zm12.3,1.8c4.1,0,7.4,3.3,7.4,7.4s-3.3,7.4-7.4,7.4-7.4-3.3-7.4-7.4,3.3-7.4,7.4-7.4Z"/><path class="uuid-e6a58234-add6-4bb6-8bdb-11de9f38704d" d="M59.7,41.3c-1-.6-2.1-1-3.4-1.1-.2,0-.4,0-.6,0-4.1,0-7.4,3.3-7.4,7.4s.4,2.6,1,3.7c-4.5,4.2-10.6,6.8-17.3,6.8s-4.2-.3-6.2-.8l1.4-3-7.1,.8-3,.3,2.1,3.2,3.5,5.3,1.6-3.3c2.5,.7,5.1,1.1,7.8,1.1,7.7,0,14.6-3,19.8-7.8,1.1,.7,2.5,1.1,3.9,1.1,4.1,0,7.4-3.3,7.4-7.4s-1.4-5-3.5-6.3Z"/><path class="uuid-e6a58234-add6-4bb6-8bdb-11de9f38704d" d="M9.4,37.9l-1.7,2.5c-.8-2.4-1.2-5-1.2-7.6,0-6.9,2.7-13.1,7.1-17.6l2.2,3,3-7.2,.9-2.2-4.6,.4-5.5,.4,1.9,2.6C6.3,17.4,3,24.7,3,32.7s.8,7.8,2.3,11.2L.3,51.3H18.1l-8.6-13.5Z"/><path class="uuid-e6a58234-add6-4bb6-8bdb-11de9f38704d" d="M38.8,8.3c8.6,2.4,15.4,9.2,17.7,17.8l-3,.3,3.9,5.8,1.8,2.6,1.8-3.8,2.7-5.8-3.6,.4c-2.6-10.4-10.9-18.6-21.3-21.1V0h-13.6V13.6h13.6v-5.3Z"/></svg>