<?xml version="1.0" encoding="UTF-8"?><svg id="uuid-0aef525b-da9b-4799-aaab-d4d64649ae24" xmlns="http://www.w3.org/2000/svg" viewBox="0 0 64 64"><defs><style>.uuid-d57be7ed-5aad-4ccb-964c-8a5ac3300adc{fill:#7fb0ba;}</style></defs><path class="uuid-d57be7ed-5aad-4ccb-964c-8a5ac3300adc" d="M25.2,15.9c-2.6,0-4.7,2.1-4.7,4.7s2.1,4.7,4.7,4.7,4.7-2.1,4.7-4.7-2.1-4.7-4.7-4.7Z"/><path class="uuid-d57be7ed-5aad-4ccb-964c-8a5ac3300adc" d="M38,31.8c-1.4-.8-3.2-.2-4,1.2-.8,1.4-.2,3.2,1.2,4,1.4,.8,3.2,.2,4-1.2,.8-1.4,.2-3.2-1.2-4Z"/><path class="uuid-d57be7ed-5aad-4ccb-964c-8a5ac3300adc" d="M61.1,31.8l-5.3-7.4C54.6,10.8,43.1,0,29.1,0S2.4,12,2.4,26.8s5.1,18.1,12.8,22.8v14.4h25.1v-4.3c0-.9,.5-1.7,1.3-2.1l12.3-5.5c.9-.4,1.4-1.3,1.4-2.2v-10c0-.6,.4-1.2,.9-1.5l3.8-1.9c1.7-.9,2.2-3,1.1-4.5Zm-31.9-4.5l-2,.8c-.3,0-.6,.4-.6,.8v1.4c0,.3-.3,.6-.6,.6h-1.6c-.3,0-.6-.3-.6-.6v-1.4c0-.3-.3-.7-.6-.8l-2-.8c-.3-.2-.7,0-.9,.1l-1,1c-.2,.2-.6,.2-.8,0l-1.2-1.1c-.2-.2-.2-.6,0-.8l1-1c.2-.2,.3-.7,.1-.9l-.8-2c0-.3-.4-.6-.8-.6h-1.4c-.3,0-.6-.3-.6-.6v-1.6c0-.3,.3-.6,.6-.6h1.4c.3,0,.7-.3,.8-.6l.8-2c.2-.3,0-.7-.1-.9l-1-1c-.2-.2-.2-.6,0-.8l1.2-1.2c.2-.2,.6-.2,.8,0l1,1c.2,.2,.7,.3,.9,.1l2-.8c.3,0,.6-.4,.6-.8v-1.4c0-.3,.3-.6,.6-.6h1.6c.3,0,.6,.3,.6,.6v1.4c0,.3,.3,.7,.6,.8l2,.8c.3,.2,.7,0,.9-.1l1-1c.2-.2,.6-.2,.8,0l1.1,1.2c.2,.2,.2,.6,0,.8l-1,1c-.2,.2-.3,.7-.1,.9l.8,2c0,.3,.4,.6,.8,.6h1.4c.3,0,.6,.3,.6,.6v1.6c0,.3-.3,.6-.6,.6h-1.4c-.3,0-.7,.3-.8,.6l-.8,2c-.2,.3,0,.7,.1,.9l1,1c.2,.2,.2,.6,0,.8l-1.1,1.1c-.2,.2-.6,.2-.8,0l-1-1c-.2-.2-.7-.3-.9-.1Zm13.5,6.1l-.8,.3c-.2,0-.4,.3-.3,.5v1.3c-.2,.2,0,.4,.1,.5l.8,.4c.2,0,.2,.3,.2,.5l-.5,.9c0,.2-.3,.2-.5,.1l-.8-.4c-.2,0-.4,0-.6,0l-1,.8c-.2,.1-.3,.4-.2,.6l.3,.8c0,.2,0,.4-.2,.5l-1,.3c-.2,0-.4,0-.5-.2l-.3-.8c0-.2-.3-.4-.5-.4h-1.3c-.2-.2-.4,0-.5,.1l-.4,.8c0,.2-.3,.2-.5,.1l-.9-.5c-.2,0-.2-.3-.2-.5l.4-.8c0-.2,0-.4,0-.6l-.8-1c-.1-.2-.4-.3-.6-.2l-.8,.3c-.2,0-.4,0-.5-.2l-.3-1c0-.2,0-.4,.2-.5l.8-.3c.2,0,.4-.3,.4-.5v-1.3c.2-.2,0-.4-.1-.5l-.8-.4c-.2,0-.2-.3-.2-.5l.5-.9c0-.2,.3-.2,.5-.2l.8,.4c.2,0,.4,0,.6,0l1-.8c.2-.1,.3-.4,.2-.6l-.3-.8c0-.2,0-.4,.2-.5l1-.3c.2,0,.4,0,.5,.2l.3,.8c0,.2,.3,.4,.5,.4h1.3c.2,.2,.4,0,.5-.1l.4-.8c0-.2,.3-.2,.5-.2l.9,.5c.2,0,.2,.3,.1,.5l-.4,.8c0,.2,0,.4,0,.6l.8,1c.1,.2,.4,.3,.6,.2l.8-.3c.2,0,.4,0,.5,.2l.3,1c0,.2,0,.4-.2,.5Z"/></svg>