<?xml version="1.0" encoding="UTF-8"?><svg id="uuid-f38d2cf3-8c63-4cb7-96d1-e0defedf22bb" xmlns="http://www.w3.org/2000/svg" viewBox="0 0 214.4 68.8"><defs><style>.uuid-2ae63852-a54f-482e-86a4-a2ed579a01a0{fill:#f5f5f5;}</style></defs><path class="uuid-2ae63852-a54f-482e-86a4-a2ed579a01a0" d="M51.7,31c-1.7-1.4-3.9-2.3-6.4-2.3s-4.7,.9-6.4,2.3c-1.7,1.4-2.8,3.5-3,5.7-.1,2.4,.8,4.5,2.5,6.2,1.7,1.7,4.1,2.7,6.8,2.7s5.1-1,6.8-2.7c1.7-1.6,2.6-3.8,2.5-6.2-.1-2.3-1.3-4.3-3-5.7Z"/><path class="uuid-2ae63852-a54f-482e-86a4-a2ed579a01a0" d="M65.9,28.6c-1.4-2.2-3.2-4.2-5.3-5.9h0S39,6.2,39,6.2c0,0,0,0,0,0-1.4-1.1-3.8-1.1-5.3,0-1.6,1.1-1.8,2.9-.4,4.1h0s9,7.3,9,7.3H14.8s0,0,0,0c-2.3,0-4.4,1.5-4.9,3.4-.4,1.9,1.1,3.5,3.5,3.5h0s13.9,0,13.9,0L2.5,43.3s0,0,0,0c-2.3,1.8-3.1,4.7-1.6,6.6,1.5,1.9,4.7,1.9,7,0l13.5-11s-.2,1.5-.2,2.4c0,.9,.3,2.6,.7,4,.9,2.9,2.4,5.5,4.6,7.9,2.2,2.4,4.9,4.4,8,5.7,3.3,1.4,6.8,2.2,10.5,2.2,3.7,0,7.2-.8,10.5-2.2,3.1-1.4,5.8-3.3,8-5.8,2.1-2.4,3.7-5,4.6-7.9,.5-1.5,.7-2.9,.9-4.4,.1-1.5,0-2.9-.1-4.4-.4-2.8-1.4-5.5-2.9-8Zm-7,13.2c-.6,1.7-1.6,3.3-3,4.7-2.8,2.8-6.7,4.4-10.9,4.4-4.2,0-8.1-1.6-10.9-4.4-1.4-1.4-2.4-3-3-4.6-.6-1.7-.8-3.4-.7-5.2,.1-1.7,.7-3.4,1.5-4.9,.8-1.5,1.9-2.8,3.3-3.9,2.7-2.2,6.2-3.4,9.8-3.4,3.6,0,7.1,1.2,9.8,3.4,1.4,1.1,2.5,2.4,3.3,3.9,.8,1.5,1.3,3.1,1.5,4.9,.2,1.8,0,3.5-.7,5.2Z"/><path class="uuid-2ae63852-a54f-482e-86a4-a2ed579a01a0" d="M188.3,29c-7.1,0-11.4,3.9-11.4,10.1s4.4,10.1,11.4,10.1,7.5-1.4,9.5-4l-4.9-2.8c-.7,1.7-2.4,2.7-4.6,2.7s-4.7-1.8-4.8-4.5h16.2v-.8c0-6.9-4.1-10.8-11.4-10.8Zm-4.6,7.7c.2-2.3,2-3.8,4.7-3.8s4.5,1.5,4.8,3.8h-9.5Z"/><path class="uuid-2ae63852-a54f-482e-86a4-a2ed579a01a0" d="M116.5,29c-7.1,0-11.4,3.9-11.4,10.1s4.4,10.1,11.4,10.1,7.5-1.4,9.5-4l-4.9-2.8c-.7,1.7-2.4,2.7-4.6,2.7s-4.7-1.8-4.8-4.5h16.2v-.8c0-6.9-4.1-10.8-11.4-10.8Zm-4.6,7.7c.2-2.3,2-3.8,4.8-3.8s4.5,1.5,4.7,3.8h-9.5Z"/><rect class="uuid-2ae63852-a54f-482e-86a4-a2ed579a01a0" x="97.8" y="24.8" width="5.8" height="23.8"/><path class="uuid-2ae63852-a54f-482e-86a4-a2ed579a01a0" d="M142.6,29.2c-2.8,0-5.3,1.1-7.4,3.3v-1.4h-5.9v17.5h5.9v-9.3c0-3.4,2.1-5.4,5.5-5.4s4.1,1.8,4.1,5.5v9.1h5.9v-10.4c0-2.5,0-4.4-1.1-6-1.3-1.9-3.7-3-7-3Z"/><path class="uuid-2ae63852-a54f-482e-86a4-a2ed579a01a0" d="M169.6,31.9c-1.5-1.6-3.6-2.5-6.6-2.5-6.4,0-10.8,4-10.8,9.9s4.4,9.9,10.7,9.9,5.1-.7,6.7-2.4v1.8h5.9V23.3l-5.9,1.5v7.1Zm-5.6,12.9c-3.4,0-5.6-2.1-5.6-5.4s2.2-5.4,5.6-5.4,5.6,2.1,5.6,5.4-2.2,5.4-5.6,5.4Z"/><path class="uuid-2ae63852-a54f-482e-86a4-a2ed579a01a0" d="M85.5,29.5c-3,0-5.1,.9-6.6,2.5v-7.1l-5.9-1.5v25.3h5.9v-1.8c1.7,1.6,3.8,2.4,6.7,2.4,6.4,0,10.7-4.1,10.7-9.9s-4.4-9.9-10.8-9.9Zm-1.1,15.3c-3.4,0-5.6-2.1-5.6-5.4s2.2-5.4,5.6-5.4,5.6,2.1,5.6,5.4-2.2,5.4-5.6,5.4Z"/><path class="uuid-2ae63852-a54f-482e-86a4-a2ed579a01a0" d="M212.8,29.1c-2.1,0-4,1.1-5.7,3.2v-1.1h-5.9v17.5h5.9v-8.4c0-3.8,2.1-6.1,5.5-6.1s1.3,0,1.9,0v-5c-.7,0-1.2-.1-1.7-.1Z"/></svg>