<svg width="96" height="96" viewBox="0 0 96 96" fill="none" xmlns="http://www.w3.org/2000/svg">
<g clip-path="url(#clip0_591_297)">
<path d="M48 8C25.96 8 8 25.96 8 48C8 70.04 25.96 88 48 88C53.52 88 58 83.52 58 78C58 75.56 57.08 73.2 55.44 71.32C55.12 70.92 54.92 70.48 54.92 70C54.92 68.88 55.8 68 56.92 68H64C77.24 68 88 57.24 88 44C88 24.16 70.04 8 48 8ZM70 52C66.68 52 64 49.32 64 46C64 42.68 66.68 40 70 40C73.32 40 76 42.68 76 46C76 49.32 73.32 52 70 52ZM58 36C54.68 36 52 33.32 52 30C52 26.68 54.68 24 58 24C61.32 24 64 26.68 64 30C64 33.32 61.32 36 58 36ZM20 46C20 42.68 22.68 40 26 40C29.32 40 32 42.68 32 46C32 49.32 29.32 52 26 52C22.68 52 20 49.32 20 46ZM44 30C44 33.32 41.32 36 38 36C34.68 36 32 33.32 32 30C32 26.68 34.68 24 38 24C41.32 24 44 26.68 44 30Z" fill="#7FB0BA"/>
</g>
<defs>
<clipPath id="clip0_591_297">
<rect width="96" height="96" fill="white"/>
</clipPath>
</defs>
</svg>
