<?xml version="1.0" encoding="UTF-8"?><svg id="uuid-502b4e61-bc41-49a6-b4df-68222f21610f" xmlns="http://www.w3.org/2000/svg" viewBox="0 0 64 64"><defs><style>.uuid-f8d10cfa-139b-4c6b-8b4e-be2b249cf0d6{fill:#fff;}</style></defs><rect class="uuid-f8d10cfa-139b-4c6b-8b4e-be2b249cf0d6" x="13.7" y="28.3" width="18.4" height="7.4"/><rect class="uuid-f8d10cfa-139b-4c6b-8b4e-be2b249cf0d6" x="13.7" y="41.9" width="18.4" height="7.4"/><rect class="uuid-f8d10cfa-139b-4c6b-8b4e-be2b249cf0d6" x="38.1" y="28.3" width="12.5" height="21"/><path class="uuid-f8d10cfa-139b-4c6b-8b4e-be2b249cf0d6" d="M56.6,0H7.4C3.3,0,0,3.3,0,7.4V56.6c0,4.1,3.3,7.4,7.4,7.4H56.6c4.1,0,7.4-3.3,7.4-7.4V7.4c0-4.1-3.3-7.4-7.4-7.4ZM21.8,7.4c2.2,0,4,1.8,4,4s-1.8,4-4,4-4-1.8-4-4,1.8-4,4-4Zm-10.4,0c2.2,0,4,1.8,4,4s-1.8,4-4,4-4-1.8-4-4,1.8-4,4-4ZM56.3,56.6H7.3V21H56.3V56.6Zm0-41.6h-24.2V7.4h24.2v7.6Z"/></svg>