<?xml version="1.0" encoding="UTF-8"?><svg id="uuid-ae899de3-448f-469b-ac30-08444c496b42" xmlns="http://www.w3.org/2000/svg" viewBox="0 0 64 64"><defs><style>.uuid-862caeff-888a-408c-a35d-e2b2ac7de762{fill:#7fb0ba;}.uuid-fcdf0ca9-9ada-498a-a92d-80e81ef4bc98{fill:#fff;}</style></defs><g><path class="uuid-862caeff-888a-408c-a35d-e2b2ac7de762" d="M1,8.7H63V55.3H1V8.7Z"/><path class="uuid-fcdf0ca9-9ada-498a-a92d-80e81ef4bc98" d="M8.3,8.7L31.9,26.3,55.4,8.7h7.6v6l-23.3,17.3,23.3,17.2v5.9h-7.8l-23.3-17.3L8.8,55.3H1v-5.8l23.2-17.2L1,14.9v-6.2h7.3Z"/><path class="uuid-862caeff-888a-408c-a35d-e2b2ac7de762" d="M42.1,36l20.9,15.4v3.9l-26.3-19.3h5.3Zm-17.8,1.9l.6,3.4L6.2,55.3H1l23.3-17.3ZM63,8.7v.3l-24.1,18.2,.2-4.3,19.1-14.2h4.8ZM1,8.7L24.2,25.8h-5.8L1,12.8v-4.1Z"/><path class="uuid-fcdf0ca9-9ada-498a-a92d-80e81ef4bc98" d="M24.3,8.7V55.3h15.5V8.7h-15.5ZM1,24.2v15.5H63v-15.5H1Z"/><path class="uuid-862caeff-888a-408c-a35d-e2b2ac7de762" d="M1,27.4v9.3H63v-9.3H1ZM27.4,8.7V55.3h9.3V8.7h-9.3Z"/></g><path class="uuid-862caeff-888a-408c-a35d-e2b2ac7de762" d="M63,56.2H1C.4,56.2,0,55.8,0,55.3V8.7C0,8.2,.4,7.8,1,7.8H63c.5,0,1,.4,1,1V55.3c0,.5-.4,1-1,1ZM2,54.3H62V9.7H2V54.3Z"/></svg>