<?xml version="1.0" encoding="UTF-8"?><svg id="uuid-13f25d5a-37c6-4731-a26c-b8adf9abb302" xmlns="http://www.w3.org/2000/svg" viewBox="0 0 64 64"><defs><style>.uuid-026262e8-d8aa-4cfb-a34e-cdf9e2a1bfee{fill:#7fb0ba;}</style></defs><path class="uuid-026262e8-d8aa-4cfb-a34e-cdf9e2a1bfee" d="M48.8,45.3c-3.3-2.8-6.9-5.2-11-7.3-.4-.2-.7-.6-.7-1.1v-1.9c0-.5,.2-.9,.6-1.1,.6-.5,1.2-1,1.7-1.5,1.6-1.8,2.4-4.1,2.5-6.5,0-2,0-3.9,0-5.9-.1-2.2-1.1-4.3-2.8-5.7-1.8-1.5-4.2-2.2-7-2.3-2.8,0-5.2,.8-7,2.3-1.7,1.4-2.7,3.5-2.8,5.7-.1,2-.1,3.9,0,5.9,.1,2.4,.9,4.7,2.5,6.5,.5,.6,1,1.1,1.7,1.5,.4,.3,.6,.7,.6,1.1v1.9c0,.4-.3,.8-.7,1.1-4.1,2.1-7.8,4.6-11,7.3-1.6,1.4-2.5,3.4-2.5,5.5v1.3H51.3v-1.3c0-2.1-.9-4.1-2.5-5.5Z"/><path class="uuid-026262e8-d8aa-4cfb-a34e-cdf9e2a1bfee" d="M21.8,36.9v-.2s0,0,0-.1v-1.6c0-.5-.2-.9-.6-1.1-.6-.5-1.2-1-1.7-1.5-1.6-1.8-2.4-4.1-2.5-6.5,0-2,0-3.9,0-5.9,0-1.3,.5-2.7,1.1-3.8-.3,0-.6,0-.9,0-2.5,0-4.6,.7-6.3,2.1-1.5,1.2-2.4,3.1-2.5,5.1,0,1.8,0,3.5,0,5.3,.1,2.1,.8,4.2,2.2,5.8,.4,.5,.9,1,1.5,1.4,.3,.2,.5,.6,.5,1v1.7c0,.4-.3,.8-.6,.9-3.7,1.9-7,4.1-9.9,6.6-1.4,1.2-2.2,3-2.2,4.9v1.1H7.6v-1.3c0-2.1,.9-4.1,2.5-5.5,3.3-2.8,6.9-5.2,11-7.3,.4-.2,.6-.6,.7-1Z"/><path class="uuid-026262e8-d8aa-4cfb-a34e-cdf9e2a1bfee" d="M61.8,46c-2.9-2.5-6.2-4.7-9.9-6.6-.4-.2-.6-.5-.6-.9v-1.7c0-.4,.2-.8,.5-1,.6-.4,1.1-.9,1.5-1.4,1.4-1.6,2.1-3.7,2.2-5.8,0-1.8,0-3.5,0-5.3-.1-2-1-3.9-2.5-5.1-1.6-1.3-3.7-2-6.3-2.1-.3,0-.6,0-.9,0,.7,1.1,1.1,2.4,1.1,3.8,.1,2,.1,3.9,0,5.9-.1,2.4-.9,4.7-2.5,6.5-.5,.6-1,1.1-1.7,1.5-.4,.3-.6,.7-.6,1.1v1.6s0,0,0,.1v.2c0,.4,.3,.8,.6,1,4.1,2.1,7.8,4.6,11,7.3,1.6,1.4,2.5,3.4,2.5,5.5v1.3h7.6v-1.1c0-1.9-.8-3.7-2.2-4.9Z"/></svg>