<?xml version="1.0" encoding="UTF-8"?>
<svg id="Calque_1" data-name="Calque 1" xmlns="http://www.w3.org/2000/svg" viewBox="0 0 48 48">
  <defs>
    <style>
      .cls-1 {
        fill: #9b9a9a;
      }

      .cls-1, .cls-2 {
        stroke: #9b9a9a;
      }

      .cls-2 {
        fill: none;
      }
    </style>
  </defs>
  <path class="cls-1" d="M42,39.8c-.1-.1-.3-.2-.5-.2h-9.9V13.8c0,1.5-.4,2.9-1,4.3-.7,1.6-1.6,2.9-2.7,4-.4.4-.9.8-1.4,1.2,0,0,0,0,0,0,1,1,1.7,2.3,2.3,3.8.6,1.5.9,3.2.9,5,0,3.8-1.2,6.7-3.5,8.5-1,.8-2.4,1.4-4,1.9v4.3c0,.2,0,.4.2.5.1.1.3.2.5.2h18.7c.2,0,.3,0,.5-.2.1-.1.2-.3.2-.5v-6.5c0-.2,0-.4-.2-.5Z"/>
  <path class="cls-2" d="M12.1,23.8c3.6,3,7.8,4.2,7.8,4.2.7.4,1.3.9,1.6,1.4.3.5.5.9.6,1.2.1.3.2.6.2.9s0,.5-.2.8c-.1.3-.3.6-.6,1-.3.4-.7.7-1.4.9-.6.2-1.4.4-2.3.3-2.1,0-7.8-.3-10.3-.9-.2,0-.4,0-.6.1-.2.1-.3.3-.3.6l-.7,7.7c0,.2,0,.4.2.6.1.2.3.2.5.3,2.6.3,5.4.5,8.3.5s5.4-.3,7.4-.9"/>
  <path class="cls-1" d="M26.5,23.3c.5-.4,1-.7,1.4-1.2,1.1-1.1,2-2.5,2.7-4,.6-1.4.9-2.8,1-4.3v-.6s0-2.4,0-2.4c0-.1,0-.2-.1-.3,0,0-.2-.1-.3-.1h-13.1c-.1,0-.2,0-.3.1,0,0-.1.2-.1.3v4.8c0,.1,0,.2.1.3,0,0,.2.1.3.1h5.7c-.5.9-1.2,1.6-2.1,2.1-.9.5-1.9.8-2.9.8-1.6,0-3-.6-4.1-1.7-1.1-1.1-1.7-2.5-1.7-4.1s.6-3,1.7-4.1c1.1-1.1,2.5-1.7,4.1-1.7s1.8.2,2.7.6c.8.4,1.5,1,2,1.8,0,.1.2.2.3.2.1,0,.2,0,.3,0l4.9-3.7c0,0,.2-.2.2-.3,0-.1,0-.2,0-.3-1.2-1.5-2.7-2.8-4.4-3.7-1.8-.9-3.7-1.3-5.7-1.3s-3.4.3-5,1c-1.6.7-2.9,1.6-4.1,2.7-1.1,1.1-2.1,2.5-2.7,4-.7,1.6-1,3.2-1,4.9s.3,3.3,1,4.9c.7,1.6,1.6,2.9,2.7,4,.7.7,1.4,1.2,2.2,1.7,4.9,2.3,9.8,2.1,14.5-.6Z"/>
</svg>