<?xml version="1.0" encoding="UTF-8"?><svg id="uuid-f54a14d1-5d3d-4be3-ae95-b3f08a72e9d7" xmlns="http://www.w3.org/2000/svg" viewBox="0 0 64 64"><defs><style>.uuid-c9ae7e56-f1cc-4caa-9de2-692937fbd8c1{fill:#7fb0ba;}</style></defs><path class="uuid-c9ae7e56-f1cc-4caa-9de2-692937fbd8c1" d="M43.5,15.7l-14,14c-1.2,1.2-1.2,3.1,0,4.3l.2,.2s0,0,0,0h0s.2,.2,.2,.2h0c0,0,0,.1,.1,.1,1.2,1,3,1,4.1-.1l14-14h7.3s7.8-7.8,7.8-7.8c.6-.6,.2-1.7-.7-1.7h-5c2.1-1.8,2.4-3.7,1-5.6h0c-1.9-1.4-3.8-1.2-5.6,.9V1.3c0-.9-1.1-1.3-1.7-.7l-7.8,7.8v7.3Z"/><path class="uuid-c9ae7e56-f1cc-4caa-9de2-692937fbd8c1" d="M32,22.4c.7,0,1.5,0,2.1,.2l5.6-5.6c-2.3-1.2-5-1.9-7.8-1.9-9.3,0-16.9,7.6-16.9,16.9s7.6,16.9,16.9,16.9,16.9-7.6,16.9-16.9-.7-5.5-1.9-7.8l-5.6,5.6c.2,.7,.3,1.4,.3,2.2,0,5.3-4.3,9.6-9.6,9.6s-9.6-4.3-9.6-9.6,4.3-9.6,9.6-9.6Z"/><path class="uuid-c9ae7e56-f1cc-4caa-9de2-692937fbd8c1" d="M60.7,17.8l-4.4,4.4h-2.1c1.3,3,2.1,6.4,2.1,9.9,0,13.4-10.9,24.3-24.3,24.3S7.7,45.4,7.7,32,18.6,7.7,32,7.7s6.8,.7,9.8,2.1v-2.1s4.4-4.4,4.4-4.4C41.9,1.2,37.1,0,32,0,14.3,0,0,14.3,0,32s14.3,32,32,32,32-14.3,32-32-1.2-9.9-3.3-14.2Z"/></svg>