<?xml version="1.0" encoding="UTF-8"?><svg id="uuid-928c27ec-9bcb-4b8b-a138-c97ae9216635" xmlns="http://www.w3.org/2000/svg" viewBox="0 0 64 64"><defs><style>.uuid-ba5e9239-5f2f-4f62-bd2a-d754dc9ae602{fill:#7fb0ba;}</style></defs><path class="uuid-ba5e9239-5f2f-4f62-bd2a-d754dc9ae602" d="M58.7,53.2c-5.2-4.4-11-8.4-17.6-11.7-.6-.3-1-1-1.1-1.7v-3c0-.7,.3-1.4,.9-1.8,1-.7,1.9-1.6,2.7-2.5,2.5-2.9,3.8-6.6,4-10.3,.1-3.2,.1-6.3,0-9.4-.2-3.5-1.7-6.9-4.5-9.1C40.2,1.3,36.4,.1,31.9,0c-4.5,.1-8.2,1.3-11.2,3.7-2.8,2.2-4.3,5.6-4.5,9.1-.2,3.1-.2,6.3,0,9.4,.2,3.8,1.5,7.5,4,10.3,.8,.9,1.7,1.7,2.7,2.5,.6,.4,1,1.1,1,1.8v3c0,.7-.5,1.4-1.1,1.7-6.6,3.4-12.4,7.3-17.6,11.7-2.6,2.2-4,5.4-4,8.8v2H62.7v-2c0-3.4-1.4-6.6-4-8.8ZM31.7,28.8c-1.1,0-1.8-.8-1.8-1.9s.8-1.9,1.8-1.9,1.8,.8,1.8,1.9-.7,1.9-1.8,1.9Zm3-11.4c-1.3,1.6-1.8,2.9-1.7,4.5v.8s-2.3,0-2.3,0v-.8c-.2-1.6,.3-3.4,1.8-5.3,1.4-1.6,2.1-2.8,2.1-4.2s-1-2.6-2.9-2.6c-1.1,0-2.3,.4-3.1,.9l-.7-1.9c1-.7,2.7-1.2,4.4-1.2,3.5,0,5.1,2.2,5.1,4.5s-1.2,3.6-2.6,5.3Z"/><path class="uuid-ba5e9239-5f2f-4f62-bd2a-d754dc9ae602" d="M62.9,15l-6-6.2c-.1-.1-.4,0-.4,.1v3.5c0,.2-.2,.4-.4,.4h-5.7v5h5.7c.2,0,.4,.2,.4,.4v3.5c0,.2,.2,.3,.4,.1l6-6.2c.2-.2,.2-.6,0-.8Z"/><path class="uuid-ba5e9239-5f2f-4f62-bd2a-d754dc9ae602" d="M7.5,21.8v-3.5c0-.2,.2-.4,.4-.4h5.7v-5H7.9c-.2,0-.4-.2-.4-.4v-3.5c0-.2-.2-.3-.4-.1L1.1,15c-.2,.2-.2,.6,0,.8l6,6.2c.1,.1,.4,0,.4-.1Z"/></svg>