<?xml version="1.0" encoding="UTF-8"?><svg id="uuid-f5a3ac1f-90b3-41a3-81ef-f4bcfc53adb5" xmlns="http://www.w3.org/2000/svg" viewBox="0 0 214.4 68.8"><defs><style>.uuid-56110a51-77d5-416d-8032-b4983bb6946b{fill:#f5f5f5;}</style></defs><path class="uuid-56110a51-77d5-416d-8032-b4983bb6946b" d="M13.8,50.9c-.2,.1-.2,.5,0,.8,.2,.3,.5,.4,.7,.3,.2-.1,.2-.5,0-.8-.2-.3-.5-.4-.7-.3Z"/><path class="uuid-56110a51-77d5-416d-8032-b4983bb6946b" d="M12.7,49.3c-.2,.1-.1,.4,0,.7,.2,.2,.5,.3,.6,.1,.2-.1,.1-.4,0-.7-.2-.2-.5-.3-.7-.1Z"/><path class="uuid-56110a51-77d5-416d-8032-b4983bb6946b" d="M11.1,48.3c0,.2,0,.4,.3,.5,.2,.1,.5,0,.5,0,0-.2,0-.4-.3-.5-.2-.1-.5,0-.5,0Z"/><path class="uuid-56110a51-77d5-416d-8032-b4983bb6946b" d="M17.4,54.3c0,.3,.2,.5,.5,.7,.4,.1,.7,0,.8-.3,0-.3-.2-.5-.5-.7-.4-.1-.7,0-.8,.3Z"/><path class="uuid-56110a51-77d5-416d-8032-b4983bb6946b" d="M15.4,53c-.2,.2,0,.6,.2,.8,.3,.3,.6,.3,.8,.1,.2-.2,.1-.6-.2-.8-.3-.3-.6-.3-.8-.1Z"/><path class="uuid-56110a51-77d5-416d-8032-b4983bb6946b" d="M20,55c0,.3,.3,.5,.7,.5,.4,0,.7-.2,.7-.5,0-.3-.3-.5-.7-.5-.4,0-.7,.2-.7,.5Z"/><path class="uuid-56110a51-77d5-416d-8032-b4983bb6946b" d="M31.8,3.4C14.2,3.4,0,17.7,0,35.2s9.1,26,21.7,30.2c1.6,.3,2.2-.7,2.2-1.5s0-3.3,0-5.9c-8.8,1.9-10.7-3.7-10.7-3.7-1.4-3.7-3.5-4.7-3.5-4.7-2.9-2,.2-1.9,.2-1.9,3.2,.2,4.9,3.3,4.9,3.3,2.8,4.9,7.4,3.5,9.2,2.6,.3-2.1,1.1-3.5,2-4.2-7.1-.8-14.5-3.5-14.5-15.7s1.2-6.3,3.3-8.5c-.3-.8-1.4-4,.3-8.4,0,0,2.7-.9,8.7,3.3,2.5-.7,5.3-1.1,8-1.1,2.7,0,5.4,.4,8,1.1,6.1-4.1,8.7-3.3,8.7-3.3,1.7,4.4,.6,7.6,.3,8.4,2,2.2,3.3,5.1,3.3,8.5,0,12.2-7.4,14.9-14.5,15.7,1.1,1,2.2,2.9,2.2,5.9,0,4.3,0,7.7,0,8.7s.6,1.8,2.2,1.5c12.6-4.2,21.7-16.1,21.7-30.2S49.3,3.4,31.8,3.4Z"/><path class="uuid-56110a51-77d5-416d-8032-b4983bb6946b" d="M23.2,54.5c-.4,0-.6,.3-.6,.6,0,.3,.4,.4,.8,.3,.4,0,.6-.3,.6-.6,0-.3-.4-.4-.8-.3Z"/><path class="uuid-56110a51-77d5-416d-8032-b4983bb6946b" d="M205.1,27.4h0c-3.8,0-6.3,1.7-6.3,1.7v-11.8c0-.3-.3-.5-.5-.5h-6.7c-.3,0-.5,.3-.5,.5V52.2c0,.3,.2,.5,.5,.5h4.6c.2,0,.3,0,.4-.3,.2-.2,.3-1.6,.3-1.6,0,0,2.8,2.6,7.9,2.6s9.6-3.1,9.6-13.8-5.6-12.2-9.3-12.2Zm-2.6,19.7c-2.3,0-3.8-1.1-3.8-1.1v-11s1.5-.9,3.4-1.1c2.4-.3,4.7,.5,4.7,6.2s-1,7.1-4.3,7.1Z"/><path class="uuid-56110a51-77d5-416d-8032-b4983bb6946b" d="M132.4,47h0s0,0,0,0c0,0,0,0,0,0-.3,0-1,.2-1.8,.2-2.4,0-3.3-1.1-3.3-2.6v-9.8h5c.3,0,.5-.3,.5-.6v-5.3c0-.3-.3-.5-.5-.5h-5v-6.6c0-.3-.2-.4-.4-.4h-6.8c-.3,0-.4,.2-.4,.4v6.8s-3.4,.8-3.6,.9c-.3,0-.4,.3-.4,.5v4.3c0,.3,.3,.6,.5,.6h3.5v10.3c0,7.7,5.3,8.4,9,8.4s3.7-.5,4-.7c.2,0,.3-.3,.3-.5v-4.7c0-.1,0-.3-.1-.4,0-.1-.2-.2-.3-.2Z"/><path class="uuid-56110a51-77d5-416d-8032-b4983bb6946b" d="M101.3,31.8h-11.7c-.3,0-.6,.3-.6,.5v5.8c0,.3,.3,.5,.6,.5h4.6v7.2s-1,.3-3.9,.3-8.1-1.2-8.1-11.6,5-11.7,9.6-11.7,5.7,.7,6.8,1c.3,0,.6-.3,.6-.5l1.3-5.6c0-.2,0-.3-.2-.4-.4-.3-3.2-1.8-10-1.8-7.9,0-16,3.3-16,19.4s9.3,18.6,17.1,18.6,10.4-2.8,10.4-2.8c.2,0,.2-.3,.2-.4v-18c0-.3-.3-.5-.6-.5Z"/><path class="uuid-56110a51-77d5-416d-8032-b4983bb6946b" d="M187.1,28.3h-6.6c-.3,0-.5,.3-.5,.6v17.1s-1.7,1.2-4.1,1.2-3-1.1-3-3.4v-14.9c0-.3-.3-.5-.5-.5h-6.7c-.3,0-.5,.3-.5,.5v16c0,6.9,3.9,8.6,9.2,8.6s7.9-2.4,7.9-2.4c0,0,.2,1.2,.3,1.4,0,.2,.3,.3,.5,.3h4.2c.3,0,.5-.3,.5-.5V28.8c0-.3-.2-.5-.5-.5Z"/><path class="uuid-56110a51-77d5-416d-8032-b4983bb6946b" d="M161.1,16.9h-6.6c-.3,0-.5,.3-.5,.5v12.8h-10.4v-12.8c0-.3-.3-.5-.5-.5h-6.7c-.3,0-.5,.3-.5,.5V52.3c0,.3,.3,.5,.5,.5h6.7c.3,0,.5-.3,.5-.5v-14.9h10.4v14.9c0,.3,.2,.5,.5,.5h6.7c.3,0,.5-.3,.5-.5V17.4c0-.3-.3-.5-.5-.5Z"/><path class="uuid-56110a51-77d5-416d-8032-b4983bb6946b" d="M109.4,17.7c-2.4,0-4.3,1.9-4.3,4.3s1.9,4.3,4.3,4.3,4.3-1.9,4.3-4.3-1.9-4.3-4.3-4.3Z"/><path class="uuid-56110a51-77d5-416d-8032-b4983bb6946b" d="M112.7,28.3h-6.7c-.3,0-.5,.3-.5,.6v23c0,.6,.4,.8,.9,.8h6c.6,0,.8-.3,.8-.8V28.8c0-.3-.3-.5-.5-.5Z"/></svg>