<?xml version="1.0" encoding="UTF-8"?><svg id="uuid-fa7d522d-4e24-4016-8928-73577e7513ac" xmlns="http://www.w3.org/2000/svg" viewBox="0 0 64 64"><defs><style>.uuid-4d3d21b9-1d2d-40fa-89b5-091da3c8112e{fill:#fff;}</style></defs><path class="uuid-4d3d21b9-1d2d-40fa-89b5-091da3c8112e" d="M47.1,30.3l5.6-5.6-13.3-13.3-5.6,5.6L19,2.2c-2.8-2.8-7.3-2.8-10.1,0L2.2,9c-2.8,2.8-2.8,7.3,0,10.1l14.7,14.7L0,50.7v13.3H13.3l16.9-16.9,14.7,14.7c3.4,3.4,7.9,2.1,10.1,0l6.8-6.8c2.8-2.8,2.8-7.3,0-10.1l-14.7-14.7Zm-25.1-1.6L7.3,14l6.7-6.8,4.5,4.5-4.2,4.2,5,5,4.2-4.2,5.2,5.2-6.7,6.8Zm28,28l-14.7-14.7,6.8-6.8,5.2,5.2-4.2,4.2,5,5,4.2-4.2,4.5,4.5-6.8,6.8Z"/><path class="uuid-4d3d21b9-1d2d-40fa-89b5-091da3c8112e" d="M63,14.4c1.4-1.4,1.4-3.6,0-5L54.6,1c-1.7-1.7-4-1-5,0l-6.5,6.5,13.3,13.3,6.5-6.5Z"/></svg>