<?xml version="1.0" encoding="UTF-8"?><svg id="uuid-5def99c8-a83c-4932-aa08-50c9667ff489" xmlns="http://www.w3.org/2000/svg" viewBox="0 0 64 64"><defs><style>.uuid-f6db4fa0-3474-4737-b04e-af7c9a128d88{fill:#7fb0ba;}</style></defs><path class="uuid-f6db4fa0-3474-4737-b04e-af7c9a128d88" d="M55.5,21.8h-1.2c.5-1.1,.8-2.4,.8-3.7,0-5.2-4.2-9.3-9.3-9.3s-6.9,2.2-8.4,5.3c-.9-.4-1.8-.6-2.8-.6-3.9,0-7.1,3.2-7.1,7.1s0,.9,.1,1.3h-.7c-2.9,0-5.2,2.3-5.2,5.2h0c0,2.9,2.3,5.2,5.2,5.2h9.4c.4,1.7,2,2.9,3.8,2.9s3.4-1.2,3.8-2.9h11.5c2.9,0,5.2-2.3,5.2-5.2h0c0-2.9-2.3-5.2-5.2-5.2Zm-7.8,1.5c-2,.2-3.3,1.3-3.6,3.5,0,.5-1,.5-1,0,0-2.1-1.2-3.3-3.7-3.6-.5,0-.4-.9,0-1,2.4-.4,3.5-1.7,3.7-3.6,0-.5,.9-.5,1,0,.3,2.3,1.5,3.5,3.5,3.6,.5,0,.5,.9,0,1Z"/><path class="uuid-f6db4fa0-3474-4737-b04e-af7c9a128d88" d="M45.1,34c-1,1.8-2.9,2.9-5,2.9s-4-1.2-5-2.9h-8.3c-3.8,0-7-3.1-7-7s2.5-6.3,5.8-6.9c0-1.1,.3-2.1,.7-3-5.8,0-11,2.5-14.6,6.5h-.3v.4c-2.6,3-4.3,6.8-4.6,11l-3.9,5.4c-.8,1.1-.4,2.7,.8,3.3l2.8,1.4c.4,.2,.7,.7,.7,1.1v7.3c0,.7,.4,1.4,1.1,1.6l9,4.1c.6,.3,1,.9,1,1.5v3.2h18.4v-10.6c5.6-3.4,9.4-9.6,9.4-16.7s0-1.8-.2-2.7h-.7Z"/><path class="uuid-f6db4fa0-3474-4737-b04e-af7c9a128d88" d="M27.6,5.6c2.8,.3,4.1,1.7,4.2,4.1,0,.5,1,.5,1.1,0,.3-2.5,1.7-3.8,4-4,.5,0,.5-1.1,0-1.1-2.3-.2-3.7-1.5-4-4.1,0-.5-1-.5-1.1,0-.3,2.1-1.5,3.6-4.2,4.1-.5,0-.5,1,0,1.1Z"/><path class="uuid-f6db4fa0-3474-4737-b04e-af7c9a128d88" d="M61.1,7.7c-1.8-.1-2.8-1.2-3.1-3.1,0-.4-.8-.4-.8,0-.2,1.6-1.1,2.7-3.2,3.1-.4,0-.4,.8,0,.8,2.1,.2,3.1,1.3,3.2,3.1,0,.4,.8,.4,.8,0,.3-1.9,1.3-2.9,3.1-3,.4,0,.4-.8,0-.8Z"/></svg>