<svg width="134" height="134" viewBox="0 0 134 134" fill="none" xmlns="http://www.w3.org/2000/svg">
<g clip-path="url(#clip0_591_302)">
<path d="M67.0002 50.2501C73.1673 50.2501 78.1668 45.2506 78.1668 39.0834C78.1668 32.9162 73.1673 27.9167 67.0002 27.9167C60.833 27.9167 55.8335 32.9162 55.8335 39.0834C55.8335 45.2506 60.833 50.2501 67.0002 50.2501Z" fill="#7FB0BA"/>
<path d="M88.7193 62.0309C86.5418 59.8534 82.801 55.8334 75.5427 55.8334C74.3702 55.8334 67.6143 55.8334 61.361 55.8334C46.0068 55.7776 33.5002 43.2709 33.5002 27.9167H22.3335C22.3335 45.5601 34.1143 60.5234 50.2502 65.3809V106.083H61.4168H72.5835H83.7502V72.8626L105.804 94.9167L113.677 87.0442L88.7193 62.0309Z" fill="#7FB0BA"/>
</g>
<defs>
<clipPath id="clip0_591_302">
<rect width="134" height="134" fill="white"/>
</clipPath>
</defs>
</svg>
