<?xml version="1.0" encoding="UTF-8"?><svg id="uuid-896658d5-1b58-4379-beda-e330f1b6eb97" xmlns="http://www.w3.org/2000/svg" viewBox="0 0 64 64"><defs><style>.uuid-f1bc8c50-e93f-4246-9f9d-c90529d15c22{fill:#7fb0ba;}</style></defs><path class="uuid-f1bc8c50-e93f-4246-9f9d-c90529d15c22" d="M37.1,43.1c3.6-3.6,5.6-8.4,5.6-13.4s-2-9.8-5.6-13.4c-3.6-3.6-8.4-5.6-13.4-5.6s-9.8,2-13.4,5.6c-3.6,3.6-5.6,8.4-5.6,13.4s.9,6.9,2.7,9.8L.7,46.1c-1,1-1,2.5,0,3.5l2.9,2.9c1,1,2.5,1,3.5,0l6.6-6.6c2.9,1.8,6.3,2.8,9.9,2.8,5.1,0,9.8-2,13.4-5.6ZM6.3,29.7c0-9.6,7.8-17.4,17.4-17.4s17.4,7.8,17.4,17.4-7.8,17.4-17.4,17.4S6.3,39.2,6.3,29.7Z"/><path class="uuid-f1bc8c50-e93f-4246-9f9d-c90529d15c22" d="M26,40.3v-6.5c0-.4,.2-.8,.6-1l2.5-1.3c1.1-.6,1.4-2,.7-3l-3.5-4.8c-.3-3.5-1.6-6.7-3.6-9.3-7.8,.7-14,7.3-14,15.2s4.5,12.7,10.7,14.6l5.6-2.5c.6-.3,.9-.8,.9-1.5Z"/><path class="uuid-f1bc8c50-e93f-4246-9f9d-c90529d15c22" d="M63.4,31.9l-5.2-7.2C57.1,11.2,45.9,.7,32.2,.7S15.5,5.1,10.7,11.9c3.8-2.9,8.4-4.4,13.2-4.4s11.4,2.3,15.5,6.4c4.1,4.1,6.4,9.6,6.4,15.5s-2.3,11.4-6.4,15.5c-4.1,4.1-9.6,6.4-15.5,6.4s-3.6-.2-5.4-.7v12.6h24.5v-4.2c0-.9,.5-1.7,1.3-2l12-5.4c.9-.4,1.4-1.2,1.4-2.2v-9.8c0-.6,.4-1.2,.9-1.5l3.7-1.9c1.6-.8,2.1-2.9,1.1-4.4Z"/></svg>