<?xml version="1.0" encoding="UTF-8"?><svg id="uuid-2dd9aeb3-7994-48d2-9ad7-cfdc5ff54a3d" xmlns="http://www.w3.org/2000/svg" xmlns:xlink="http://www.w3.org/1999/xlink" viewBox="0 0 64 64"><defs><style>.uuid-44e83ea0-98ef-4bd6-9904-e8e71323958e,.uuid-25142cdf-1927-4371-bc76-e676602003c1{fill:#7fb0ba;}.uuid-e6d21f6e-c275-4875-8f48-1347a9b516c8,.uuid-e2cda4f2-525f-4ce3-8a5c-e301611a127b{fill:#fff;}.uuid-e2cda4f2-525f-4ce3-8a5c-e301611a127b,.uuid-add52883-7c46-4e11-b8ab-95eadc6d5f21,.uuid-322c0506-dda6-4b09-9e5e-464f8a2e7e8d,.uuid-25142cdf-1927-4371-bc76-e676602003c1{fill-rule:evenodd;}.uuid-add52883-7c46-4e11-b8ab-95eadc6d5f21{fill:#010101;}.uuid-322c0506-dda6-4b09-9e5e-464f8a2e7e8d{fill:#54757a;}.uuid-8d0f64ac-11a9-4835-bae8-ae6bd7a94bc9{fill:none;}.uuid-2389136c-1e67-4794-8c92-9213707fe04b{clip-path:url(#uuid-02ff3e28-76ad-4977-9f0f-b59f2e23f75f);}</style><clipPath id="uuid-02ff3e28-76ad-4977-9f0f-b59f2e23f75f"><rect class="uuid-8d0f64ac-11a9-4835-bae8-ae6bd7a94bc9" x="1" y="8.8" width="62" height="46.5"/></clipPath></defs><g class="uuid-2389136c-1e67-4794-8c92-9213707fe04b"><g><path class="uuid-e2cda4f2-525f-4ce3-8a5c-e301611a127b" d="M1,8.8H63V55.2H1V8.8Z"/><g><g id="uuid-998aa97b-6444-4dbb-94b1-998407573a08"><path id="uuid-2a699747-d6ea-4dad-ab2b-79ec8d0c3847" class="uuid-25142cdf-1927-4371-bc76-e676602003c1" d="M7.8,22.9l6.4-9.7,1.6,1.1-6.4,9.7-1.6-1.1Zm2.4,1.6l6.4-9.7,1.6,1.1-6.4,9.7-1.6-1.1Zm2.4,1.6l6.4-9.7,1.6,1.1-6.4,9.7-1.6-1.1Z"/><path id="uuid-5dc5333b-a23a-4fa4-a40e-d59c47784901" class="uuid-25142cdf-1927-4371-bc76-e676602003c1" d="M43.2,46.5l6.4-9.7,1.6,1.1-6.4,9.7-1.6-1.1Zm2.4,1.6l6.4-9.7,1.6,1.1-6.4,9.7-1.6-1.1Zm2.4,1.6l6.4-9.7,1.6,1.1-6.4,9.7-1.6-1.1Z"/></g><g><path class="uuid-add52883-7c46-4e11-b8ab-95eadc6d5f21" d="M45.7,41.1l8.1,5.4"/><rect class="uuid-e6d21f6e-c275-4875-8f48-1347a9b516c8" x="49.1" y="39" width="1.1" height="9.7" transform="translate(-14.3 60.8) rotate(-56.3)"/></g><path class="uuid-25142cdf-1927-4371-bc76-e676602003c1" d="M22.3,25.6c3.6-5.3,10.8-6.8,16.1-3.2,5.3,3.6,6.8,10.8,3.2,16.1l-19.3-12.9Z"/><path class="uuid-322c0506-dda6-4b09-9e5e-464f8a2e7e8d" d="M22.3,25.6c-3.6,5.3-2.1,12.6,3.2,16.1s12.6,2.1,16.1-3.2,1.1-6.3-1.6-8.1c-2.7-1.8-6.3-1.1-8.1,1.6l-9.7-6.4Z"/><circle class="uuid-44e83ea0-98ef-4bd6-9904-e8e71323958e" cx="27.1" cy="28.8" r="5.8"/></g><g><g id="uuid-879a17b2-30f7-4cd5-ad7d-7538e922c49f"><path id="uuid-5fe21e4c-aab9-4557-9876-7c1506f335a7" class="uuid-25142cdf-1927-4371-bc76-e676602003c1" d="M14.3,50.8l-6.4-9.7,1.6-1.1,6.4,9.7-1.6,1.1Zm2.4-1.6l-6.4-9.7,1.6-1.1,6.4,9.7-1.6,1.1Zm2.4-1.6l-6.4-9.7,1.6-1.1,6.4,9.7-1.6,1.1Z"/><path id="uuid-909cb474-77d9-48f9-ab14-c84450077031" class="uuid-25142cdf-1927-4371-bc76-e676602003c1" d="M49.7,27.2l-6.4-9.7,1.6-1.1,6.4,9.7-1.6,1.1Zm2.4-1.6l-6.4-9.7,1.6-1.1,6.4,9.7-1.6,1.1Zm2.4-1.6l-6.4-9.7,1.6-1.1,6.4,9.7-1.6,1.1Z"/></g><g><path class="uuid-add52883-7c46-4e11-b8ab-95eadc6d5f21" d="M13.1,44.6l2.4-1.6m30.2-20.1l2.8-1.9m2.4-1.6l2.4-1.6"/><path class="uuid-e6d21f6e-c275-4875-8f48-1347a9b516c8" d="M13.4,45.1l-.6-.9,2.4-1.6,.6,.9-2.4,1.6ZM46,23.3l-.6-.9,2.8-1.9,.6,.9-2.8,1.9Zm5.2-3.5l-.6-.9,2.4-1.6,.6,.9-2.4,1.6Z"/></g></g></g></g><path class="uuid-44e83ea0-98ef-4bd6-9904-e8e71323958e" d="M63,56.2H1c-.6,0-1-.5-1-1V8.8c0-.6,.5-1,1-1H63c.6,0,1,.5,1,1V55.2c0,.6-.5,1-1,1ZM2,54.2H62V9.8H2V54.2Z"/></svg>