<?xml version="1.0" encoding="UTF-8"?><svg id="uuid-2a7502e1-91a7-433e-9db4-65e3a9d19921" xmlns="http://www.w3.org/2000/svg" viewBox="0 0 64 64"><defs><style>.uuid-c8de1004-a5a2-43c0-afa8-653544fe8b54{fill:#fff;}</style></defs><path class="uuid-c8de1004-a5a2-43c0-afa8-653544fe8b54" d="M19.1,19.5h29.5v7.5l6.6,5.2V14.8h0S41,.5,41,.5h0s0,0,0,0H0V41.2H0l14.1,14.1h0s20.2,0,20.2,0v-6.6h-15.2V19.5Zm-6.6,0v24.8l-5.9-5.9V11.8l5.9,5.9v1.9Zm31.4-6.6H17.1l-5.7-5.7h26.8l5.7,5.7Z"/><polygon class="uuid-c8de1004-a5a2-43c0-afa8-653544fe8b54" points="64 46.9 39.5 24.2 39.5 56.2 46.3 49.5 52.2 63.5 59.6 60.4 53.9 46.8 64 46.9"/></svg>