<?xml version="1.0" encoding="UTF-8"?><svg id="uuid-2a9d4987-7eb5-405a-88dc-f037bd057dfa" xmlns="http://www.w3.org/2000/svg" viewBox="0 0 64 64"><defs><style>.uuid-8fece6c1-28c6-4354-8339-d54fe14de5b4{fill:#7fb0ba;}</style></defs><path class="uuid-8fece6c1-28c6-4354-8339-d54fe14de5b4" d="M62.1,40.3l-2.3-1.4-23.9,14.1c-1.2,.7-2.5,1-3.8,1s-2.6-.4-3.8-1.1L4.4,38.7l-2.3,1.4c-2.5,1.5-2.5,5.2,0,6.7l27.1,16.2c1.8,1.1,4.1,1.1,5.9,0l27-16c2.5-1.5,2.6-5.2,0-6.7Z"/><path class="uuid-8fece6c1-28c6-4354-8339-d54fe14de5b4" d="M1.9,35.4l27.1,16.2c1.8,1.1,4.1,1.1,5.9,0l27-16c2.5-1.5,2.6-5.2,0-6.7l-2.4-1.4-23.6,14c-1.2,.7-2.5,1-3.8,1s-2.6-.4-3.8-1.1L4.5,27.1l-2.6,1.5c-2.5,1.5-2.5,5.2,0,6.7Z"/><path class="uuid-8fece6c1-28c6-4354-8339-d54fe14de5b4" d="M1.9,23.8l27.1,16.2c1.8,1.1,4.1,1.1,5.9,0l27-16c2.5-1.5,2.6-5.2,0-6.7L34.6,.9c-1.7-1-3.8-1-5.5,0L1.9,17.1c-2.5,1.5-2.5,5.2,0,6.7Z"/></svg>