<?xml version="1.0" encoding="UTF-8"?><svg id="uuid-19b667e4-812b-49a3-9171-9e6489345b8e" xmlns="http://www.w3.org/2000/svg" viewBox="0 0 64 64"><defs><style>.uuid-a53c22fb-1407-41c8-a1c8-da646150201d{fill:#7fb0ba;}</style></defs><path class="uuid-a53c22fb-1407-41c8-a1c8-da646150201d" d="M60.5,37.2l-1.5-2c-.9-1.2-2.5-1.5-3.8-.7l-16.9,10.7c-.2,.1-.5,.2-.8,0l-3.3-1.1c-.2,0-.1-.3,0-.3h3.2c1.2,0,2.1-1,2.1-2.1v-4c0-1.2-1-2.1-2.1-2.1h-14.5c-1.5,.4-2.8,1.1-3.8,2.2l-9.8,9.8-.3-.4c-.8-.9-2.2-1.1-3.1-.3l-2.2,1.8c-.9,.8-1.1,2.2-.3,3.1l9.5,11.4c.8,.9,2.2,1.1,3.1,.3l2.2-1.8c.8-.7,1-1.8,.6-2.7l7.4-3.4c.2,0,.4-.1,.6-.1h12.1c1.2-.1,2.1-.4,2.7-.9l18.4-13.4c1.3-.9,1.5-2.7,.6-3.9Z"/><path class="uuid-a53c22fb-1407-41c8-a1c8-da646150201d" d="M18.5,24.2c-.4,1.1,.4,2.2,1.5,2.2h11.5c1.6,0,3-1.3,3-3v-5.1h6.4v18.1c.2,.4,.2,.9,.2,1.3v3.5l4.8-3V2.5C46,1.1,44.9,0,43.5,0s-2.5,1.1-2.5,2.5v.2h-9.2c-1.7,0-3.1,1.4-3.1,3.1v5.1h-8.6c-1.1,0-1.9,1.1-1.5,2.2l1.8,4.8c.2,.4,.2,.9,0,1.3l-1.8,4.8Z"/></svg>