<?xml version="1.0" encoding="UTF-8"?><svg id="uuid-3435807b-9f31-454c-ae54-ef12884d5d43" xmlns="http://www.w3.org/2000/svg" viewBox="0 0 64 64"><defs><style>.uuid-6b909dd5-ad7a-4c7a-bd64-f0afd82a3eda{fill:#7fb0ba;}</style></defs><path class="uuid-6b909dd5-ad7a-4c7a-bd64-f0afd82a3eda" d="M56.7,30.1c-1-14.7-13.3-26.4-28.2-26.4S.1,16.4,.1,32s3,14.6,8,19.7c2.6,2.6,5.6,4.8,9,6.2,3.5,1.5,7.3,2.3,11.3,2.3s7.8-.8,11.3-2.3c3.7-1.6,6.9-4,9.6-6.9-.3-.3-.6-.7-.9-1-.7-.6-1.4-1.1-2.1-1.7-3.2-2.5-6.8-4.8-10.7-6.8-.5-.2-.8-.7-.8-1.2v-2.2c0-.5,.2-1,.7-1.3,.7-.5,1.4-1.1,1.9-1.8,1.8-2.1,2.8-4.8,2.9-7.5,.1-2.3,.1-4.6,0-6.8-.1-2.6-1.3-5-3.3-6.6-2.1-1.7-4.8-2.5-8.1-2.6-3.3,.1-6,1-8.1,2.6-2,1.6-3.1,4-3.3,6.6-.1,2.3-.1,4.6,0,6.8,.1,2.7,1.1,5.4,2.9,7.5,.6,.6,1.2,1.2,1.9,1.8,.4,.3,.7,.8,.7,1.3v2.2c0,.5-.3,1-.8,1.2-4.2,2.1-7.9,4.6-11.3,7.3-4.2-4.4-6.9-10.3-6.9-16.9C4.2,18.6,15,7.7,28.4,7.7s23.2,9.9,24.2,22.4h-6.5l5.9,7.5,2.9,3.7,.3-.4,8.5-10.8h-7.2Z"/></svg>