<?xml version="1.0" encoding="UTF-8"?><svg id="uuid-452d1ee7-7c80-4232-8703-bc76aa9a36b5" xmlns="http://www.w3.org/2000/svg" viewBox="0 0 64 64"><defs><style>.uuid-bf3fa65a-a37f-4429-85da-61ae9079c284{fill:#fff;}</style></defs><path class="uuid-bf3fa65a-a37f-4429-85da-61ae9079c284" d="M40.5,39.4c.4,.4,1,.6,1.6,.6,.6,0,1.1-.3,1.6-.7,.4-.4,.7-1,.7-1.6s-.2-1.1-.7-1.6l-4.5-4.5c.5-.8,.9-1.7,1.2-2.6,.3-.9,.4-1.9,.4-2.9,0-2.9-1-5.3-3-7.3-2-2-4.4-3-7.2-3s-5.2,1-7.2,3c-2,2-3,4.4-3,7.3s1,5.3,3,7.3c2,2,4.4,3,7.2,3s2-.1,2.9-.3c.9-.2,1.8-.6,2.7-1.1l4.4,4.5Zm-10-7.4c-1.6,0-3-.6-4.1-1.7-1.1-1.1-1.7-2.5-1.7-4.1s.6-3,1.7-4.1c1.1-1.1,2.5-1.7,4.1-1.7s2.9,.6,4.1,1.7c1.2,1.1,1.7,2.5,1.7,4.1s-.6,3-1.7,4.1c-1.1,1.1-2.5,1.7-4.1,1.7ZM8.7,49.5c-1.6,0-3-.6-4.1-1.7-1.1-1.1-1.7-2.5-1.7-4.1V11.5c0-1.6,.6-3,1.7-4.1,1.1-1.1,2.5-1.7,4.1-1.7H55.3c1.6,0,3,.6,4.1,1.7,1.1,1.1,1.7,2.5,1.7,4.1V43.7c0,1.6-.6,3-1.7,4.1-1.1,1.1-2.5,1.7-4.1,1.7H8.7Zm-5.8,8.8c-.8,0-1.5-.3-2.1-.8-.6-.6-.8-1.3-.8-2.1s.3-1.5,.8-2.1c.6-.6,1.2-.8,2.1-.8H61.1c.8,0,1.5,.3,2.1,.8,.6,.6,.8,1.3,.8,2.1s-.3,1.5-.8,2.1c-.6,.6-1.2,.8-2.1,.8H2.9Z"/></svg>