<?xml version="1.0" encoding="UTF-8"?><svg id="uuid-15820e73-4f7c-4a8b-839d-5286190c7d89" xmlns="http://www.w3.org/2000/svg" viewBox="0 0 64 64"><defs><style>.uuid-e8d744b5-73e0-417f-a2c1-fc0e1e5562aa{fill:#7fb0ba;}</style></defs><path class="uuid-e8d744b5-73e0-417f-a2c1-fc0e1e5562aa" d="M32.6,30.9h4.1c1.4,0,2.6-1.2,2.6-2.6v-2.1h-9.3v2.1c0,1.4,1.2,2.6,2.6,2.6Z"/><path class="uuid-e8d744b5-73e0-417f-a2c1-fc0e1e5562aa" d="M28.6,21.3c.9,1.1,1.5,2,1.3,2.6h9.6c0-.5,.4-1.4,1.3-2.6,2.8-1.9,4.7-5.2,4.7-8.9,0-5.9-4.8-10.8-10.8-10.8s-10.8,4.8-10.8,10.8,1.9,7,4.7,8.9Zm.2-9c0-.2,.2-.3,.3-.3h.8c.2,0,.4-.1,.4-.3l.5-1.1c0-.2,0-.4,0-.5l-.6-.6c-.1-.1-.1-.3,0-.5l.6-.6c.1-.1,.3-.1,.5,0l.6,.6c.1,.1,.4,.2,.5,0l1.1-.5c.2,0,.3-.2,.3-.4v-.8c0-.2,.2-.3,.3-.3h.9c.2,0,.3,.2,.3,.3v.8c0,.2,.1,.4,.3,.4l1.1,.5c.2,0,.4,0,.5,0l.6-.6c.1-.1,.3-.1,.5,0l.6,.6c.1,.1,.1,.3,0,.5l-.6,.6c-.1,.1-.2,.4,0,.5l.5,1.1c0,.2,.2,.3,.4,.3h.8c.2,0,.3,.1,.3,.3v.9c0,.2-.2,.3-.3,.3h-.8c-.2,0-.4,.1-.4,.3l-.5,1.1c0,.2,0,.4,0,.5l.6,.6c.1,.1,.1,.3,0,.5l-.6,.6c-.1,.1-.3,.1-.5,0l-.6-.6c-.1-.1-.4-.2-.5,0l-1.1,.5c-.2,0-.3,.2-.3,.4v.8c0,.2-.2,.3-.3,.3h-.9c-.2,0-.3-.2-.3-.3v-.8c0-.2-.1-.4-.3-.4l-1.1-.5c-.2,0-.4,0-.5,0l-.6,.6c-.1,.1-.3,.1-.5,0l-.6-.6c-.1-.1-.1-.3,0-.5l.6-.6c.1-.1,.2-.4,0-.5l-.5-1.1c0-.2-.2-.3-.4-.3h-.8c-.2,0-.3-.2-.3-.3v-.9Z"/><path class="uuid-e8d744b5-73e0-417f-a2c1-fc0e1e5562aa" d="M34.6,15.4c1.5,0,2.7-1.2,2.7-2.7s-1.2-2.7-2.7-2.7-2.7,1.2-2.7,2.7,1.2,2.7,2.7,2.7Z"/><path class="uuid-e8d744b5-73e0-417f-a2c1-fc0e1e5562aa" d="M23.7,2.9c.4,.4,1.2,.4,1.6,0s.4-1.2,0-1.6l-1-1c-.4-.4-1.2-.4-1.6,0s-.4,1.2,0,1.6l1,1Z"/><path class="uuid-e8d744b5-73e0-417f-a2c1-fc0e1e5562aa" d="M49,13.4h1.4c.6,0,1.1-.5,1.1-1.1s-.5-1.1-1.1-1.1h-1.4c-.6,0-1.1,.5-1.1,1.1s.5,1.1,1.1,1.1Z"/><path class="uuid-e8d744b5-73e0-417f-a2c1-fc0e1e5562aa" d="M18.9,13.4h1.4c.6,0,1.1-.5,1.1-1.1s-.5-1.1-1.1-1.1h-1.4c-.6,0-1.1,.5-1.1,1.1s.5,1.1,1.1,1.1Z"/><path class="uuid-e8d744b5-73e0-417f-a2c1-fc0e1e5562aa" d="M45.6,21.6c-.4-.4-1.2-.4-1.6,0-.4,.4-.4,1.2,0,1.6l1,1c.4,.4,1.2,.4,1.6,0,.4-.4,.4-1.2,0-1.6l-1-1Z"/><path class="uuid-e8d744b5-73e0-417f-a2c1-fc0e1e5562aa" d="M45.6,2.9l1-1c.4-.4,.4-1.2,0-1.6-.4-.4-1.2-.4-1.6,0l-1,1c-.4,.4-.4,1.2,0,1.6s1.2,.4,1.6,0Z"/><path class="uuid-e8d744b5-73e0-417f-a2c1-fc0e1e5562aa" d="M24.4,24.1l1-1c.4-.4,.4-1.2,0-1.6-.4-.4-1.2-.4-1.6,0l-1,1c-.4,.4-.4,1.2,0,1.6,.4,.4,1.2,.4,1.6,0Z"/><path class="uuid-e8d744b5-73e0-417f-a2c1-fc0e1e5562aa" d="M57.8,39.8l-1.3-1.8c-.8-1.1-2.3-1.4-3.4-.7l-15.3,9.6c-.2,.1-.5,.2-.7,0l-3-1c-.2,0-.1-.3,0-.3h2.9c1.1,0,1.9-.9,1.9-1.9v-3.6c0-1.1-.9-1.9-1.9-1.9h-13.2c-1.4,.4-2.6,1-3.4,1.9l-8.9,8.9-.3-.4c-.7-.8-2-1-2.8-.3l-2,1.6c-.8,.7-1,2-.3,2.8l8.6,10.4c.7,.8,2,1,2.8,.3l2-1.6c.7-.6,.9-1.6,.5-2.4l6.7-3.1c.2,0,.3-.1,.5-.1h11c1.1-.1,1.9-.3,2.4-.8l16.6-12.2c1.1-.8,1.4-2.4,.6-3.6Z"/></svg>