<?xml version="1.0" encoding="UTF-8"?><svg id="uuid-8fcbbe19-7f30-4b24-b126-aa34a5398f56" xmlns="http://www.w3.org/2000/svg" viewBox="0 0 64 64"><defs><style>.uuid-953da0f7-0d2a-4197-a1f0-fc32256c896c{fill:#7fb0ba;}</style></defs><path class="uuid-953da0f7-0d2a-4197-a1f0-fc32256c896c" d="M61.4,36.4l-1.5-2.1c-.9-1.2-2.6-1.6-3.9-.8l-17.5,11c-.2,.1-.5,.2-.8,.1l-3.4-1.1c-.2,0-.1-.3,0-.3h3.3c1.2,0,2.2-1,2.2-2.2v-4.1c0-1.2-1-2.2-2.2-2.2h-15c-1.6,.4-2.9,1.1-3.9,2.2l-10.1,10.1-.3-.4c-.8-1-2.2-1.1-3.2-.3l-2.2,1.9c-1,.8-1.1,2.2-.3,3.2l9.8,11.8c.8,1,2.2,1.1,3.2,.3l2.2-1.9c.8-.7,1-1.8,.6-2.8l7.6-3.5c.2,0,.4-.1,.6-.1h12.5c1.3-.1,2.2-.4,2.7-.9l19-13.9c1.3-.9,1.6-2.8,.6-4.1Z"/><path class="uuid-953da0f7-0d2a-4197-a1f0-fc32256c896c" d="M26.4,13.4c.3,.4,.7,.7,1.1,1,.2,.2,.4,.5,.4,.8v1.2c0,.3-.2,.6-.4,.7-2.7,1.4-5.1,3-7.3,4.8-1.1,.9-1.6,2.2-1.6,3.6v.8h25.3v-.8c0-1.4-.6-2.7-1.6-3.6-2.1-1.8-4.5-3.4-7.3-4.8-.3-.1-.4-.4-.4-.7v-1.2c0-.3,.1-.6,.4-.8,.4-.3,.8-.6,1.1-1,1-1.2,1.6-2.7,1.6-4.3,0-1.3,0-2.6,0-3.9,0-1.4-.7-2.8-1.8-3.7-1.2-1-2.7-1.4-4.6-1.5-1.8,0-3.4,.5-4.6,1.5-1.1,.9-1.8,2.3-1.8,3.7,0,1.3,0,2.6,0,3.9,0,1.6,.6,3.1,1.6,4.3Z"/><path class="uuid-953da0f7-0d2a-4197-a1f0-fc32256c896c" d="M15.2,25.5c0-1.4,.6-2.7,1.6-3.6,2.1-1.8,4.5-3.4,7.3-4.8,.2-.1,.4-.4,.4-.7h0c0-.1,0-.2,0-.2v-1.1c0-.3-.1-.6-.4-.8-.4-.3-.8-.6-1.1-1-1-1.2-1.6-2.7-1.6-4.3,0-1.3,0-2.6,0-3.9,0-.9,.3-1.7,.8-2.5-.2,0-.4,0-.6,0-1.7,0-3,.5-4.1,1.3-1,.8-1.6,2.1-1.7,3.4,0,1.2,0,2.3,0,3.5,0,1.4,.5,2.8,1.5,3.8,.3,.3,.6,.6,1,.9,.2,.2,.4,.4,.4,.7v1.1c0,.3-.2,.5-.4,.6-2.4,1.2-4.6,2.7-6.5,4.3-.9,.8-1.5,2-1.5,3.2v.7h5v-.8Z"/><path class="uuid-953da0f7-0d2a-4197-a1f0-fc32256c896c" d="M37.9,16.3h0c0,.4,.2,.6,.4,.8,2.7,1.4,5.1,3,7.3,4.8,1.1,.9,1.6,2.2,1.6,3.6v.8h5v-.7c0-1.2-.5-2.4-1.5-3.2-1.9-1.6-4.1-3.1-6.5-4.3-.2-.1-.4-.4-.4-.6v-1.1c0-.3,.1-.5,.3-.7,.4-.3,.7-.6,1-.9,.9-1.1,1.4-2.4,1.5-3.8,0-1.2,0-2.3,0-3.5,0-1.3-.6-2.5-1.7-3.4-1.1-.9-2.5-1.3-4.1-1.3-.2,0-.4,0-.6,0,.4,.7,.7,1.6,.8,2.5,0,1.3,0,2.6,0,3.9,0,1.6-.6,3.1-1.6,4.3-.3,.4-.7,.7-1.1,1-.2,.2-.4,.5-.4,.8v1.1s0,0,0,0Z"/></svg>