<?xml version="1.0" encoding="UTF-8"?><svg id="uuid-62269ca3-7d91-4a0e-9bce-7286af08d97d" xmlns="http://www.w3.org/2000/svg" viewBox="0 0 64 64"><defs><style>.uuid-d511f09a-7689-498a-8cdb-ca824ab1cbdd{fill:#7fb0ba;}</style></defs><path class="uuid-d511f09a-7689-498a-8cdb-ca824ab1cbdd" d="M39.6,15h11.5v-1.5L37.6,0h-1.5V11.6c0,1.9,1.5,3.4,3.4,3.4Z"/><path class="uuid-d511f09a-7689-498a-8cdb-ca824ab1cbdd" d="M37.5,37.3l13.6-13.6v-7.5h-11.5c-2.6,0-4.7-2.1-4.7-4.7V0H5.2C2.3,0,0,2.4,0,5.2V58.8C0,61.6,2.3,63.9,5.2,63.9H45.9c2.9,0,5.2-2.3,5.2-5.2v-19.6l-5.9,5.9-7.7-7.7ZM9.8,18.8h24.4c.9,0,1.7,.7,1.7,1.7s-.7,1.7-1.7,1.7H9.8c-.9,0-1.7-.7-1.7-1.7s.7-1.7,1.7-1.7Zm-1.7,9.3c0-.9,.7-1.7,1.7-1.7H28.3c.9,0,1.7,.7,1.7,1.7h0c0,.9-.7,1.7-1.7,1.7H9.8c-.9,0-1.7-.7-1.7-1.7h0Zm1.7,5.9H28.3c.9,0,1.7,.7,1.7,1.7s-.7,1.7-1.7,1.7H9.8c-.9,0-1.7-.7-1.7-1.7s.7-1.7,1.7-1.7Zm-1.7,9.2c0-.9,.7-1.7,1.7-1.7H28.3c.9,0,1.7,.7,1.7,1.7s-.7,1.7-1.7,1.7H9.8c-.9,0-1.7-.7-1.7-1.7Zm29.4,11.2c0,.9-.7,1.7-1.7,1.7h-11.3c-.9,0-1.7-.7-1.7-1.7h0c0-.9,.7-1.7,1.7-1.7h11.3c.9,0,1.7,.7,1.7,1.7h0Zm-.1-6.2h-.2c0,0-.1,0-.2,0-.7,0-1.5-.3-2-.8-.6-.6-.9-1.4-.8-2.2v-.2s2.6-7.5,2.6-7.5l8.1,8.1-7.5,2.6Z"/><rect class="uuid-d511f09a-7689-498a-8cdb-ca824ab1cbdd" x="39.9" y="30" width="17.5" height="7.7" transform="translate(-9.7 44.3) rotate(-45)"/><path class="uuid-d511f09a-7689-498a-8cdb-ca824ab1cbdd" d="M62.9,19.6h0c-1.5-1.5-4-1.5-5.5,0l-2.7,2.7,5.5,5.5,2.7-2.7c1.5-1.5,1.5-4,0-5.5Z"/><path class="uuid-d511f09a-7689-498a-8cdb-ca824ab1cbdd" d="M37.1,46.7l5-1.7-4.5-4.5-1.7,4.9c0,.7,.6,1.3,1.3,1.3Z"/></svg>