<?xml version="1.0" encoding="UTF-8"?>
<svg id="Calque_1" data-name="Calque 1" xmlns="http://www.w3.org/2000/svg" xmlns:xlink="http://www.w3.org/1999/xlink" viewBox="0 0 214.4 68.8">
  <defs>
    <style>
      .cls-1 {
        fill: #fff;
      }

      .cls-1, .cls-2, .cls-3 {
        stroke-width: 0px;
      }

      .cls-1, .cls-3 {
        fill-rule: evenodd;
      }

      .cls-2, .cls-3 {
        fill: #f5f5f5;
      }

      .cls-4 {
        mask: url(#mask);
      }

      .cls-5 {
        opacity: .2;
      }
    </style>
    <mask id="mask" x="65.4" y=".3" width="83.7" height="68.1" maskUnits="userSpaceOnUse">
      <g id="mask0_65_56" data-name="mask0 65 56">
        <path class="cls-1" d="M124.7,68.1c1.3.4,2.8.4,4.1-.1l17.2-6.8c1.8-.7,3-2.2,3-3.9V11.4c0-1.6-1.2-3.1-3-3.9l-17.2-6.8c-1.7-.7-3.8-.5-5.3.4-.2.1-.4.3-.6.4l-33,24.6-14.4-8.9c-1.3-.8-3.2-.8-4.4.2l-4.6,3.4c-1.5,1.1-1.5,3.1,0,4.2l12.4,9.3-12.4,9.3c-1.5,1.1-1.5,3.1,0,4.2l4.6,3.4c1.2.9,3.1,1,4.4.2l14.4-8.9,33,24.6c.5.4,1.1.7,1.8,1ZM128.2,18.8l-25,15.5,25,15.5v-31.1Z"/>
      </g>
    </mask>
  </defs>
  <g class="cls-4">
    <g>
      <path class="cls-2" d="M146.1,7.5l-17.2-6.8c-2-.8-4.4-.5-5.9.8l-56.4,42.1c-1.5,1.1-1.5,3.1,0,4.2l4.6,3.4c1.2.9,3.1,1,4.4.2L143.5,9.3c2.3-1.4,5.6,0,5.6,2.3v-.2c0-1.6-1.1-3.1-3-3.9Z"/>
      <path class="cls-2" d="M146.1,61.2l-17.2,6.8c-2,.8-4.4.5-5.9-.8l-56.4-42.1c-1.5-1.1-1.5-3.1,0-4.2l4.6-3.4c1.2-.9,3.1-1,4.4-.2l67.9,42.2c2.3,1.4,5.6,0,5.6-2.3v.2c0,1.6-1.1,3.1-3,3.9Z"/>
      <path class="cls-2" d="M128.9,68c-2,.8-4.4.5-5.9-.8,1.9,1.6,5.2.5,5.2-1.8V3.4c0-2.2-3.3-3.4-5.2-1.8,1.6-1.3,3.9-1.6,5.9-.8l17.2,6.8c1.8.7,3,2.2,3,3.9v46c0,1.6-1.2,3.1-3,3.9l-17.2,6.8Z"/>
      <g class="cls-5">
        <path class="cls-3" d="M124.7,68.1c1.3.4,2.8.4,4.1-.1l17.2-6.8c1.8-.7,3-2.2,3-3.9V11.4c0-1.6-1.2-3.1-3-3.9l-17.2-6.8c-1.7-.7-3.8-.5-5.3.4-.2.1-.4.3-.6.4l-33,24.6-14.4-8.9c-1.3-.8-3.2-.8-4.4.2l-4.6,3.4c-1.5,1.1-1.5,3.1,0,4.2l12.4,9.3-12.4,9.3c-1.5,1.1-1.5,3.1,0,4.2l4.6,3.4c1.2.9,3.1,1,4.4.2l14.4-8.9,33,24.6c.5.4,1.1.7,1.8,1ZM128.1,18.8l-25,15.5,25,15.5v-31.1Z"/>
      </g>
    </g>
  </g>
</svg>