<svg width="399" height="75" viewBox="0 0 399 75" fill="none" xmlns="http://www.w3.org/2000/svg">
<mask id="path-1-outside-1_2002_297" maskUnits="userSpaceOnUse" x="-0.431152" y="16" width="188" height="44" fill="black">
<rect fill="white" x="-0.431152" y="16" width="188" height="44"/>
<path d="M25.6524 18.8668L24.8802 26.7924C24.8531 27.0091 24.7447 27.1988 24.555 27.3614C24.3654 27.4969 24.1622 27.5375 23.9454 27.4833C21.2358 26.8872 18.7565 26.5756 16.5076 26.5485C15.5863 26.5214 14.787 26.6433 14.1096 26.9143C13.4593 27.1582 12.9851 27.4833 12.687 27.8898C12.4161 28.2962 12.2264 28.6484 12.118 28.9465C12.0096 29.2446 11.9555 29.5155 11.9555 29.7594C11.9555 30.0303 12.0096 30.3284 12.118 30.6535C12.2264 30.9787 12.4432 31.3851 12.7683 31.8729C13.0935 32.3606 13.6354 32.8348 14.3941 33.2954C15.1799 33.756 16.1282 34.1218 17.2392 34.3928C18.4856 34.6908 19.6913 35.1921 20.8565 35.8966C22.0487 36.6011 23.1461 37.4952 24.1486 38.5791C25.1512 39.6358 25.9505 40.95 26.5466 42.5215C27.1427 44.0931 27.4408 45.8001 27.4408 47.6427C27.4408 51.5987 26.2214 54.525 23.7828 56.4217C21.3442 58.3455 17.4017 59.3074 11.9555 59.3074C8.89362 59.3074 6.02146 59.1449 3.33897 58.8197C3.14929 58.7926 2.98672 58.6978 2.85124 58.5352C2.71576 58.3726 2.64802 58.183 2.64802 57.9662L3.42025 50.0406C3.44735 49.7968 3.55573 49.6071 3.7454 49.4716C3.93508 49.3362 4.15184 49.2955 4.39571 49.3497C6.99691 49.9187 9.38135 50.2168 11.549 50.2439C12.4974 50.271 13.2967 50.1626 13.947 49.9187C14.6244 49.6478 15.0986 49.3226 15.3695 48.9433C15.6405 48.5368 15.8302 48.1846 15.9386 47.8865C16.0469 47.5614 16.1011 47.2769 16.1011 47.033C16.1011 46.762 16.0469 46.464 15.9386 46.1388C15.8302 45.8137 15.6134 45.4072 15.2883 44.9195C14.9902 44.4318 14.4483 43.9576 13.6625 43.497C12.9038 43.0364 11.969 42.6706 10.8581 42.3996C9.58457 42.1015 8.36525 41.6003 7.20013 40.8958C6.03501 40.1913 4.95117 39.3107 3.94862 38.2539C2.94608 37.1972 2.1332 35.883 1.50999 34.3115C0.913884 32.7128 0.615829 30.9922 0.615829 29.1497C0.615829 25.3563 1.98417 22.4706 4.72086 20.4926C7.48464 18.4875 11.2781 17.4849 16.1011 17.4849C18.7023 17.4849 21.6558 17.6611 24.9615 18.0133C25.1512 18.0404 25.3137 18.1352 25.4492 18.2978C25.5847 18.4604 25.6524 18.6501 25.6524 18.8668ZM57.9385 18.2978V26.3859C57.9385 26.6027 57.8573 26.7924 57.6947 26.9549C57.5321 27.0904 57.3424 27.1582 57.1257 27.1582H48.2247V57.3159C48.2247 57.5598 48.1434 57.7494 47.9808 57.8849C47.8182 58.0475 47.6286 58.1288 47.4118 58.1288H37.576C37.3592 58.1288 37.1696 58.0475 37.007 57.8849C36.8715 57.7494 36.8038 57.5598 36.8038 57.3159V27.1582H27.9028C27.6589 27.1582 27.4557 27.0904 27.2931 26.9549C27.1576 26.7924 27.0899 26.6027 27.0899 26.3859V18.2978C27.0899 18.054 27.1576 17.8643 27.2931 17.7288C27.4557 17.5662 27.6589 17.4849 27.9028 17.4849H57.1257C57.3424 17.4849 57.5321 17.5662 57.6947 17.7288C57.8573 17.8643 57.9385 18.054 57.9385 18.2978ZM93.5054 17.4849C93.7222 17.4849 93.8983 17.5662 94.0338 17.7288C94.1963 17.8643 94.2776 18.0404 94.2776 18.2572V42.6841C94.2776 44.2828 94.1015 45.8408 93.7493 47.3582C93.397 48.8484 92.7873 50.3252 91.9203 51.7883C91.0532 53.2786 89.9694 54.5657 88.6688 55.6495C87.3682 56.7604 85.6882 57.641 83.6289 58.2913C81.5697 58.9687 79.253 59.3074 76.6788 59.3074C74.1318 59.3074 71.8287 58.9687 69.7694 58.2913C67.7372 57.641 66.0573 56.7604 64.7296 55.6495C63.429 54.5657 62.3451 53.2786 61.4781 51.7883C60.611 50.3252 60.0013 48.8484 59.6491 47.3582C59.2968 45.8408 59.1207 44.2828 59.1207 42.6841V18.2572C59.1207 18.0404 59.1885 17.8643 59.3239 17.7288C59.4865 17.5662 59.6762 17.4849 59.8929 17.4849H69.7288C69.9455 17.4849 70.1352 17.5662 70.2978 17.7288C70.4603 17.8643 70.5416 18.0404 70.5416 18.2572V42.8873C70.5416 43.7273 70.6365 44.5266 70.8261 45.2853C71.0429 46.0169 71.3816 46.7214 71.8422 47.3988C72.3029 48.0762 72.9532 48.6181 73.7931 49.0245C74.6331 49.4039 75.6086 49.5936 76.7195 49.5936C77.8304 49.5936 78.8059 49.4039 79.6458 49.0245C80.4858 48.6181 81.1226 48.0762 81.5561 47.3988C82.0167 46.7214 82.3554 46.0169 82.5722 45.2853C82.789 44.5266 82.8974 43.7273 82.8974 42.8873V18.2572C82.8974 18.0404 82.9651 17.8643 83.1006 17.7288C83.2631 17.5662 83.4528 17.4849 83.6696 17.4849H93.5054ZM111.695 17.4849C114.215 17.4849 116.518 17.8914 118.604 18.7043C120.718 19.49 122.587 20.6823 124.213 22.2809C125.866 23.8525 127.153 25.966 128.074 28.6213C128.995 31.2767 129.456 34.3386 129.456 37.8069C129.456 41.2751 128.995 44.337 128.074 46.9924C127.153 49.6478 125.866 51.7612 124.213 53.3328C122.587 54.9315 120.718 56.1237 118.604 56.9095C116.518 57.7223 114.215 58.1288 111.695 58.1288H96.2908C96.0469 58.1288 95.8437 58.0475 95.6811 57.8849C95.5456 57.7494 95.4779 57.5598 95.4779 57.3159V18.2978C95.4779 18.054 95.5456 17.8643 95.6811 17.7288C95.8437 17.5662 96.0469 17.4849 96.2908 17.4849H111.695ZM109.134 48.4962C111.735 48.4962 113.849 47.602 115.475 45.8137C117.1 44.0254 117.913 41.3429 117.913 37.7662C117.913 34.1896 117.1 31.5071 115.475 29.7187C113.849 27.9304 111.735 27.0362 109.134 27.0362H107.265C107.021 27.0362 106.899 27.1717 106.899 27.4427V48.1304C106.899 48.3742 107.021 48.4962 107.265 48.4962H109.134ZM141.292 58.1288H131.497C131.253 58.1288 131.05 58.0475 130.887 57.8849C130.752 57.7494 130.684 57.5598 130.684 57.3159V18.2978C130.684 18.054 130.752 17.8643 130.887 17.7288C131.05 17.5662 131.253 17.4849 131.497 17.4849H141.292C141.509 17.4849 141.698 17.5662 141.861 17.7288C142.024 17.8643 142.105 18.054 142.105 18.2978V57.3159C142.105 57.5598 142.024 57.7494 141.861 57.8849C141.698 58.0475 141.509 58.1288 141.292 58.1288ZM156.435 18.5823C159.09 17.4443 161.867 16.8753 164.767 16.8753C167.693 16.8753 170.484 17.4443 173.139 18.5823C175.795 19.6933 178.084 21.1971 180.008 23.0938C181.932 24.9905 183.463 27.253 184.601 29.8813C185.739 32.4825 186.308 35.2192 186.308 38.0914C186.308 40.9635 185.739 43.7138 184.601 46.3421C183.463 48.9704 181.932 51.2329 180.008 53.1296C178.084 55.0263 175.795 56.5301 173.139 57.641C170.484 58.752 167.693 59.3074 164.767 59.3074C161.867 59.3074 159.09 58.752 156.435 57.641C153.779 56.5301 151.49 55.0263 149.566 53.1296C147.642 51.2329 146.111 48.9704 144.973 46.3421C143.835 43.7138 143.266 40.9635 143.266 38.0914C143.266 35.2192 143.835 32.4825 144.973 29.8813C146.111 27.253 147.642 24.9905 149.566 23.0938C151.49 21.1971 153.779 19.6933 156.435 18.5823ZM157.817 44.9602C159.74 46.8569 162.057 47.8052 164.767 47.8052C167.503 47.8052 169.834 46.8569 171.757 44.9602C173.681 43.0635 174.643 40.7739 174.643 38.0914C174.643 35.4089 173.681 33.1193 171.757 31.2226C169.834 29.3258 167.503 28.3775 164.767 28.3775C162.057 28.3775 159.74 29.3258 157.817 31.2226C155.893 33.1193 154.931 35.4089 154.931 38.0914C154.931 40.7739 155.893 43.0635 157.817 44.9602Z"/>
</mask>
<path d="M25.6524 18.8668L26.2653 18.9265L26.2682 18.8968V18.8668H25.6524ZM24.8802 26.7924L25.4913 26.8688L25.4923 26.8604L25.4931 26.8521L24.8802 26.7924ZM24.555 27.3614L24.913 27.8625L24.9351 27.8467L24.9558 27.8289L24.555 27.3614ZM23.9454 27.4833L24.0947 26.8859L24.0862 26.8838L24.0777 26.8819L23.9454 27.4833ZM16.5076 26.5485L16.4895 27.1642L16.5001 27.1643L16.5076 26.5485ZM14.1096 26.9143L14.3259 27.491L14.3383 27.4861L14.1096 26.9143ZM12.687 27.8898L12.1904 27.5256L12.1823 27.5367L12.1747 27.5482L12.687 27.8898ZM12.118 28.9465L12.6968 29.1569L12.6968 29.1569L12.118 28.9465ZM12.118 30.6535L12.7022 30.4588H12.7022L12.118 30.6535ZM12.7683 31.8729L13.2807 31.5313V31.5313L12.7683 31.8729ZM14.3941 33.2954L14.0745 33.8218L14.0827 33.8267L14.3941 33.2954ZM17.2392 34.3928L17.0932 34.9911L17.0959 34.9917L17.2392 34.3928ZM20.8565 35.8966L20.5378 36.4236L20.5432 36.4268L20.8565 35.8966ZM24.1486 38.5791L23.6965 38.9973L23.7019 39.0029L24.1486 38.5791ZM26.5466 42.5215L25.9708 42.7399V42.7399L26.5466 42.5215ZM23.7828 56.4217L23.4047 55.9356L23.4014 55.9382L23.7828 56.4217ZM3.33897 58.8197L3.25186 59.4295L3.26486 59.4311L3.33897 58.8197ZM2.85124 58.5352L3.32432 58.141V58.141L2.85124 58.5352ZM2.64802 57.9662L2.03511 57.9065L2.03221 57.9363V57.9662H2.64802ZM3.42025 50.0406L2.80815 49.9726L2.80734 49.9809L3.42025 50.0406ZM3.7454 49.4716L4.10334 49.9727H4.10334L3.7454 49.4716ZM4.39571 49.3497L4.26212 49.9509L4.26411 49.9513L4.39571 49.3497ZM11.549 50.2439L11.5666 49.6282L11.5567 49.6281L11.549 50.2439ZM13.947 49.9187L14.1633 50.4955L14.1757 50.4905L13.947 49.9187ZM15.3695 48.9433L15.8706 49.3012L15.8764 49.2931L15.8819 49.2849L15.3695 48.9433ZM15.9386 47.8865L16.5173 48.097L16.5201 48.0892L16.5228 48.0813L15.9386 47.8865ZM15.9386 46.1388L15.3543 46.3336V46.3336L15.9386 46.1388ZM15.2883 44.9195L14.7628 45.2406L14.7691 45.251L14.7759 45.2611L15.2883 44.9195ZM13.6625 43.497L13.3429 44.0234L13.3511 44.0283L13.6625 43.497ZM10.8581 42.3996L11.004 41.8013L10.9984 41.8L10.8581 42.3996ZM7.20013 40.8958L6.88149 41.4228V41.4228L7.20013 40.8958ZM1.50999 34.3115L0.932864 34.5267L0.937545 34.5385L1.50999 34.3115ZM4.72086 20.4926L5.08159 20.9917L5.08248 20.991L4.72086 20.4926ZM24.9615 18.0133L25.0486 17.4037L25.0377 17.4021L25.0267 17.401L24.9615 18.0133ZM25.4492 18.2978L24.9761 18.6921L24.9761 18.6921L25.4492 18.2978ZM25.6524 18.8668L25.0395 18.8071L24.2673 26.7327L24.8802 26.7924L25.4931 26.8521L26.2653 18.9265L25.6524 18.8668ZM24.8802 26.7924L24.2691 26.716C24.2638 26.7589 24.2455 26.8156 24.1543 26.8938L24.555 27.3614L24.9558 27.8289C25.2439 27.582 25.4424 27.2594 25.4913 26.8688L24.8802 26.7924ZM24.555 27.3614L24.1971 26.8603C24.1643 26.8837 24.1457 26.8884 24.1396 26.8896C24.1342 26.8907 24.1217 26.8926 24.0947 26.8859L23.9454 27.4833L23.796 28.0807C24.1963 28.1808 24.5837 28.0977 24.913 27.8625L24.555 27.3614ZM23.9454 27.4833L24.0777 26.8819C21.3362 26.2788 18.8143 25.9604 16.515 25.9327L16.5076 26.5485L16.5001 27.1643C18.6987 27.1908 21.1354 27.4957 23.8131 28.0848L23.9454 27.4833ZM16.5076 26.5485L16.5257 25.933C15.5415 25.904 14.6544 26.0331 13.8809 26.3425L14.1096 26.9143L14.3383 27.4861C14.9196 27.2536 15.6312 27.1388 16.4895 27.1641L16.5076 26.5485ZM14.1096 26.9143L13.8934 26.3377C13.1719 26.6082 12.5814 26.9925 12.1904 27.5256L12.687 27.8898L13.1836 28.2539C13.3888 27.9742 13.7467 27.7081 14.3258 27.4909L14.1096 26.9143ZM12.687 27.8898L12.1747 27.5482C11.8894 27.9761 11.6709 28.374 11.5393 28.736L12.118 28.9465L12.6968 29.1569C12.7819 28.9228 12.9428 28.6163 13.1994 28.2314L12.687 27.8898ZM12.118 28.9465L11.5393 28.736C11.4134 29.0823 11.3396 29.4258 11.3396 29.7594H11.9555H12.5713C12.5713 29.6052 12.6059 29.4068 12.6968 29.1569L12.118 28.9465ZM11.9555 29.7594H11.3396C11.3396 30.1114 11.4098 30.4762 11.5338 30.8483L12.118 30.6535L12.7022 30.4588C12.6095 30.1806 12.5713 29.9493 12.5713 29.7594H11.9555ZM12.118 30.6535L11.5338 30.8483C11.6675 31.2493 11.9187 31.7085 12.2559 32.2144L12.7683 31.8729L13.2807 31.5313C12.9677 31.0617 12.7853 30.7081 12.7022 30.4588L12.118 30.6535ZM12.7683 31.8729L12.2559 32.2144C12.6501 32.8056 13.2748 33.3362 14.0745 33.8218L14.3941 33.2954L14.7137 32.769C13.996 32.3333 13.5369 31.9155 13.2807 31.5313L12.7683 31.8729ZM14.3941 33.2954L14.0827 33.8267C14.9313 34.3241 15.9383 34.7094 17.0932 34.991L17.2392 34.3928L17.3851 33.7945C16.3181 33.5343 15.4285 33.1879 14.7055 32.7641L14.3941 33.2954ZM17.2392 34.3928L17.0959 34.9917C18.2768 35.2741 19.4237 35.7499 20.5378 36.4236L20.8565 35.8966L21.1751 35.3696C19.959 34.6343 18.6944 34.1076 17.3824 33.7938L17.2392 34.3928ZM20.8565 35.8966L20.5432 36.4268C21.6806 37.0989 22.7319 37.9544 23.6965 38.9972L24.1486 38.5791L24.6007 38.1609C23.5602 37.0361 22.4167 36.1033 21.1697 35.3664L20.8565 35.8966ZM24.1486 38.5791L23.7019 39.0029C24.6402 39.992 25.3992 41.2331 25.9708 42.7399L26.5466 42.5215L27.1224 42.3031C26.5017 40.6669 25.6621 39.2796 24.5954 38.1552L24.1486 38.5791ZM26.5466 42.5215L25.9708 42.7399C26.538 44.2353 26.8249 45.8676 26.8249 47.6427H27.4408H28.0566C28.0566 45.7327 27.7474 43.9509 27.1224 42.3031L26.5466 42.5215ZM27.4408 47.6427H26.8249C26.8249 51.4669 25.6527 54.1872 23.4047 55.9356L23.7828 56.4217L24.1609 56.9078C26.7902 54.8628 28.0566 51.7304 28.0566 47.6427H27.4408ZM23.7828 56.4217L23.4014 55.9382C21.1271 57.7324 17.3567 58.6916 11.9555 58.6916V59.3074V59.9233C17.4468 59.9233 21.5613 58.9587 24.1642 56.9052L23.7828 56.4217ZM11.9555 59.3074V58.6916C8.91519 58.6916 6.06799 58.5302 3.41307 58.2084L3.33897 58.8197L3.26486 59.4311C5.97493 59.7595 8.87205 59.9233 11.9555 59.9233V59.3074ZM3.33897 58.8197L3.42606 58.2101C3.40349 58.2069 3.37325 58.1997 3.32432 58.141L2.85124 58.5352L2.37816 58.9294C2.60019 59.1959 2.8951 59.3784 3.25188 59.4293L3.33897 58.8197ZM2.85124 58.5352L3.32432 58.141C3.28348 58.092 3.26384 58.0427 3.26384 57.9662H2.64802H2.03221C2.03221 58.3232 2.14804 58.6533 2.37816 58.9294L2.85124 58.5352ZM2.64802 57.9662L3.26093 58.0259L4.03317 50.1004L3.42025 50.0406L2.80734 49.9809L2.03511 57.9065L2.64802 57.9662ZM3.42025 50.0406L4.0323 50.1087C4.04123 50.0283 4.06433 50.0006 4.10334 49.9727L3.7454 49.4716L3.38747 48.9705C3.04713 49.2136 2.85347 49.5652 2.8082 49.9726L3.42025 50.0406ZM3.7454 49.4716L4.10334 49.9727C4.13969 49.9468 4.17508 49.9315 4.26212 49.9509L4.39571 49.3497L4.52929 48.7485C4.1286 48.6595 3.73046 48.7255 3.38747 48.9705L3.7454 49.4716ZM4.39571 49.3497L4.26411 49.9513C6.89719 50.5273 9.32381 50.8319 11.5413 50.8596L11.549 50.2439L11.5567 49.6281C9.43888 49.6016 7.09663 49.3102 4.5273 48.7481L4.39571 49.3497ZM11.549 50.2439L11.5314 50.8594C12.5322 50.888 13.4163 50.7754 14.1632 50.4953L13.947 49.9187L13.7308 49.3421C13.1771 49.5497 12.4626 49.6539 11.5666 49.6283L11.549 50.2439ZM13.947 49.9187L14.1757 50.4905C14.9057 50.1985 15.5027 49.8163 15.8706 49.3012L15.3695 48.9433L14.8684 48.5853C14.6945 48.8289 14.3431 49.097 13.7183 49.3469L13.947 49.9187ZM15.3695 48.9433L15.8819 49.2849C16.1672 48.857 16.3857 48.459 16.5173 48.097L15.9386 47.8865L15.3598 47.6761C15.2747 47.9102 15.1138 48.2167 14.8571 48.6017L15.3695 48.9433ZM15.9386 47.8865L16.5228 48.0813C16.6443 47.7167 16.7169 47.3639 16.7169 47.033H16.1011H15.4853C15.4853 47.1898 15.4496 47.406 15.3543 47.6918L15.9386 47.8865ZM16.1011 47.033H16.7169C16.7169 46.681 16.6468 46.3162 16.5228 45.9441L15.9386 46.1388L15.3543 46.3336C15.4471 46.6118 15.4853 46.8431 15.4853 47.033H16.1011ZM15.9386 46.1388L16.5228 45.9441C16.3891 45.5431 16.1379 45.0839 15.8006 44.5779L15.2883 44.9195L14.7759 45.2611C15.0889 45.7306 15.2712 46.0843 15.3543 46.3336L15.9386 46.1388ZM15.2883 44.9195L15.8137 44.5984C15.4403 43.9874 14.8006 43.4503 13.9739 42.9657L13.6625 43.497L13.3511 44.0283C14.096 44.4649 14.5401 44.8762 14.7628 45.2406L15.2883 44.9195ZM13.6625 43.497L13.9821 42.9706C13.1566 42.4694 12.1595 42.0831 11.004 41.8013L10.8581 42.3996L10.7122 42.9979C11.7785 43.258 12.651 43.6033 13.3429 44.0234L13.6625 43.497ZM10.8581 42.3996L10.9984 41.8C9.79032 41.5173 8.63091 41.0413 7.51876 40.3688L7.20013 40.8958L6.88149 41.4228C8.09959 42.1593 9.37881 42.6859 10.7177 42.9992L10.8581 42.3996ZM7.20013 40.8958L7.51876 40.3688C6.40393 39.6947 5.36266 38.8497 4.39538 37.8301L3.94862 38.2539L3.50187 38.6778C4.53969 39.7717 5.66608 40.6879 6.88149 41.4228L7.20013 40.8958ZM3.94862 38.2539L4.39538 37.8301C3.45485 36.8387 2.68128 35.5946 2.08244 34.0845L1.50999 34.3115L0.937545 34.5385C1.58512 36.1715 2.4373 37.5557 3.50187 38.6778L3.94862 38.2539ZM1.50999 34.3115L2.087 34.0963C1.51854 32.5718 1.23164 30.9247 1.23164 29.1497H0.615829H1.39475e-05C1.39475e-05 31.0598 0.309231 32.8538 0.932987 34.5266L1.50999 34.3115ZM0.615829 29.1497H1.23164C1.23164 25.5258 2.52665 22.8383 5.08159 20.9917L4.72086 20.4926L4.36012 19.9935C1.44169 22.1028 1.39475e-05 25.1868 1.39475e-05 29.1497H0.615829ZM4.72086 20.4926L5.08248 20.991C7.70571 19.0879 11.356 18.1008 16.1011 18.1008V17.4849V16.8691C11.2001 16.8691 7.26357 17.8871 4.35923 19.9941L4.72086 20.4926ZM16.1011 17.4849V18.1008C18.6755 18.1008 21.6066 18.2751 24.8962 18.6257L24.9615 18.0133L25.0267 17.401C21.705 17.047 18.7291 16.8691 16.1011 16.8691V17.4849ZM24.9615 18.0133L24.8744 18.6229C24.897 18.6262 24.9272 18.6333 24.9761 18.6921L25.4492 18.2978L25.9223 17.9036C25.7003 17.6371 25.4053 17.4547 25.0486 17.4037L24.9615 18.0133ZM25.4492 18.2978L24.9761 18.6921C25.017 18.7411 25.0366 18.7903 25.0366 18.8668H25.6524H26.2682C26.2682 18.5098 26.1524 18.1797 25.9223 17.9036L25.4492 18.2978ZM57.6947 26.955L58.0889 27.428L58.1104 27.4102L58.1301 27.3904L57.6947 26.955ZM48.2247 27.1582V26.5424H47.6089V27.1582H48.2247ZM47.9808 57.8849L47.5866 57.4118L47.5651 57.4297L47.5454 57.4495L47.9808 57.8849ZM37.007 57.8849L37.4424 57.4495V57.4495L37.007 57.8849ZM36.8038 27.1582H37.4196V26.5424H36.8038V27.1582ZM27.2931 26.955L26.82 27.3492L26.8559 27.3922L26.8989 27.428L27.2931 26.955ZM27.2931 17.7288L26.8577 17.2934V17.2934L27.2931 17.7288ZM57.6947 17.7288L57.2592 18.1642L57.279 18.184L57.3005 18.2019L57.6947 17.7288ZM57.9385 18.2978H57.3227V26.3859H57.9385H58.5544V18.2978H57.9385ZM57.9385 26.3859H57.3227C57.3227 26.4287 57.3141 26.4646 57.2592 26.5195L57.6947 26.955L58.1301 27.3904C58.4004 27.1201 58.5544 26.7767 58.5544 26.3859H57.9385ZM57.6947 26.955L57.3004 26.4819C57.2514 26.5227 57.2022 26.5424 57.1257 26.5424V27.1582V27.774C57.4827 27.774 57.8128 27.6582 58.0889 27.428L57.6947 26.955ZM57.1257 27.1582V26.5424H48.2247V27.1582V27.774H57.1257V27.1582ZM48.2247 27.1582H47.6089V57.3159H48.2247H48.8405V27.1582H48.2247ZM48.2247 57.3159H47.6089C47.6089 57.3694 47.6001 57.3929 47.5977 57.3985C47.5964 57.4015 47.5955 57.4028 47.5948 57.4036C47.5942 57.4045 47.592 57.4073 47.5866 57.4118L47.9808 57.8849L48.375 58.358C48.7003 58.087 48.8405 57.7114 48.8405 57.3159H48.2247ZM47.9808 57.8849L47.5454 57.4495C47.4905 57.5043 47.4546 57.513 47.4118 57.513V58.1288V58.7446C47.8026 58.7446 48.146 58.5906 48.4163 58.3204L47.9808 57.8849ZM47.4118 58.1288V57.513H37.576V58.1288V58.7446H47.4118V58.1288ZM37.576 58.1288V57.513C37.5332 57.513 37.4973 57.5043 37.4424 57.4495L37.007 57.8849L36.5715 58.3204C36.8418 58.5906 37.1852 58.7446 37.576 58.7446V58.1288ZM37.007 57.8849L37.4424 57.4495C37.4415 57.4486 37.441 57.4479 37.4403 57.4468C37.4395 57.4455 37.4373 57.4417 37.4345 57.4339C37.4288 57.4179 37.4196 57.3817 37.4196 57.3159H36.8038H36.1879C36.1879 57.6763 36.2912 58.0401 36.5715 58.3204L37.007 57.8849ZM36.8038 57.3159H37.4196V27.1582H36.8038H36.1879V57.3159H36.8038ZM36.8038 27.1582V26.5424H27.9028V27.1582V27.774H36.8038V27.1582ZM27.9028 27.1582V26.5424C27.7798 26.5424 27.7227 26.5113 27.6873 26.4819L27.2931 26.955L26.8989 27.428C27.1887 27.6696 27.538 27.774 27.9028 27.774V27.1582ZM27.2931 26.955L27.7662 26.5607C27.7253 26.5117 27.7057 26.4625 27.7057 26.3859H27.0899H26.4741C26.4741 26.7429 26.5899 27.073 26.82 27.3492L27.2931 26.955ZM27.0899 26.3859H27.7057V18.2978H27.0899H26.4741V26.3859H27.0899ZM27.0899 18.2978H27.7057C27.7057 18.2321 27.7149 18.1958 27.7206 18.1798C27.7234 18.172 27.7256 18.1682 27.7264 18.167C27.7271 18.1658 27.7277 18.1651 27.7285 18.1642L27.2931 17.7288L26.8577 17.2934C26.5774 17.5737 26.4741 17.9374 26.4741 18.2978H27.0899ZM27.2931 17.7288L27.7285 18.1642C27.7681 18.1247 27.8112 18.1008 27.9028 18.1008V17.4849V16.8691C27.5066 16.8691 27.1433 17.0077 26.8577 17.2934L27.2931 17.7288ZM27.9028 17.4849V18.1008H57.1257V17.4849V16.8691H27.9028V17.4849ZM57.1257 17.4849V18.1008C57.1684 18.1008 57.2044 18.1094 57.2592 18.1642L57.6947 17.7288L58.1301 17.2934C57.8598 17.0231 57.5164 16.8691 57.1257 16.8691V17.4849ZM57.6947 17.7288L57.3005 18.2019C57.3059 18.2064 57.3081 18.2092 57.3087 18.2101C57.3093 18.2109 57.3103 18.2122 57.3116 18.2152C57.3139 18.2208 57.3227 18.2444 57.3227 18.2978H57.9385H58.5544C58.5544 17.9023 58.4142 17.5267 58.0889 17.2557L57.6947 17.7288ZM94.0338 17.7288L93.5607 18.123L93.5965 18.166L93.6395 18.2019L94.0338 17.7288ZM93.7493 47.3582L94.3486 47.4998L94.3491 47.4974L93.7493 47.3582ZM91.9203 51.7883L91.3905 51.4744L91.388 51.4786L91.9203 51.7883ZM88.6688 55.6495L88.2745 55.1764L88.2688 55.1812L88.6688 55.6495ZM83.6289 58.2913L83.4435 57.7041L83.4365 57.7064L83.6289 58.2913ZM69.7694 58.2913L69.9618 57.7063L69.9571 57.7048L69.7694 58.2913ZM64.7296 55.6495L65.1247 55.1772L65.1238 55.1764L64.7296 55.6495ZM61.4781 51.7883L62.0103 51.4786L62.0078 51.4744L61.4781 51.7883ZM59.6491 47.3582L59.0492 47.4974L59.0498 47.4998L59.6491 47.3582ZM59.3239 17.7288L58.8885 17.2934V17.2934L59.3239 17.7288ZM70.2978 17.7288L69.8623 18.1642L69.8821 18.184L69.9035 18.2019L70.2978 17.7288ZM70.8261 45.2853L70.2287 45.4347L70.2319 45.4475L70.2357 45.4603L70.8261 45.2853ZM71.8422 47.3988L72.3515 47.0525V47.0525L71.8422 47.3988ZM73.7931 49.0245L73.5249 49.5789L73.5322 49.5824L73.5397 49.5858L73.7931 49.0245ZM79.6458 49.0245L79.8993 49.5858L79.9067 49.5824L79.9141 49.5789L79.6458 49.0245ZM81.5561 47.3988L81.0469 47.0525L81.042 47.0596L81.0374 47.0668L81.5561 47.3988ZM82.5722 45.2853L83.1627 45.4603L83.1643 45.4545L82.5722 45.2853ZM83.1006 17.7288L82.6651 17.2934L83.1006 17.7288ZM93.5054 17.4849V18.1008C93.521 18.1008 93.5307 18.1022 93.5356 18.1032C93.5381 18.1037 93.5397 18.1042 93.5406 18.1045C93.5414 18.1048 93.5419 18.105 93.542 18.105C93.5421 18.1051 93.5423 18.1052 93.5426 18.1054C93.543 18.1056 93.5438 18.1061 93.545 18.1071C93.5473 18.1089 93.5528 18.1135 93.5607 18.123L94.0338 17.7288L94.5068 17.3346C94.2511 17.0277 93.8998 16.8691 93.5054 16.8691V17.4849ZM94.0338 17.7288L93.6395 18.2019C93.649 18.2098 93.6536 18.2152 93.6555 18.2176C93.6565 18.2188 93.657 18.2196 93.6572 18.2199C93.6574 18.2202 93.6575 18.2204 93.6575 18.2206C93.6576 18.2207 93.6578 18.2211 93.6581 18.222C93.6583 18.2229 93.6588 18.2245 93.6593 18.227C93.6604 18.2319 93.6618 18.2416 93.6618 18.2572H94.2776H94.8934C94.8934 17.8628 94.7349 17.5114 94.428 17.2557L94.0338 17.7288ZM94.2776 18.2572H93.6618V42.6841H94.2776H94.8934V18.2572H94.2776ZM94.2776 42.6841H93.6618C93.6618 44.2371 93.4908 45.7484 93.1494 47.2189L93.7493 47.3582L94.3491 47.4974C94.7122 45.9332 94.8934 44.3284 94.8934 42.6841H94.2776ZM93.7493 47.3582L93.1499 47.2165C92.8135 48.6399 92.2293 50.0589 91.3905 51.4744L91.9203 51.7883L92.4501 52.1023C93.3454 50.5914 93.9805 49.057 94.3486 47.4998L93.7493 47.3582ZM91.9203 51.7883L91.388 51.4786C90.5564 52.908 89.5189 54.1394 88.2745 55.1764L88.6688 55.6495L89.063 56.1226C90.4198 54.9919 91.55 53.6492 92.4526 52.098L91.9203 51.7883ZM88.6688 55.6495L88.2688 55.1812C87.0452 56.2264 85.444 57.0724 83.4435 57.7041L83.6289 58.2913L83.8144 58.8786C85.9325 58.2097 87.6912 57.2944 89.0687 56.1177L88.6688 55.6495ZM83.6289 58.2913L83.4365 57.7064C81.4497 58.3599 79.1995 58.6916 76.6788 58.6916V59.3074V59.9233C79.3064 59.9233 81.6896 59.5776 83.8214 58.8763L83.6289 58.2913ZM76.6788 59.3074V58.6916C74.1861 58.6916 71.9492 58.3601 69.9618 57.7064L69.7694 58.2913L69.577 58.8763C71.7081 59.5774 74.0776 59.9233 76.6788 59.9233V59.3074ZM69.7694 58.2913L69.9571 57.7048C67.9837 57.0733 66.3789 56.2266 65.1247 55.1772L64.7296 55.6495L64.3344 56.1218C65.7356 57.2942 67.4907 58.2087 69.5817 58.8779L69.7694 58.2913ZM64.7296 55.6495L65.1238 55.1764C63.8794 54.1394 62.8419 52.908 62.0103 51.4786L61.4781 51.7883L60.9458 52.098C61.8483 53.6492 62.9785 54.9919 64.3353 56.1226L64.7296 55.6495ZM61.4781 51.7883L62.0078 51.4744C61.169 50.0589 60.5848 48.6399 60.2484 47.2165L59.6491 47.3582L59.0498 47.4998C59.4178 49.057 60.0529 50.5914 60.9483 52.1023L61.4781 51.7883ZM59.6491 47.3582L60.2489 47.2189C59.9076 45.7484 59.7365 44.2371 59.7365 42.6841H59.1207H58.5049C58.5049 44.3284 58.6861 45.9332 59.0492 47.4974L59.6491 47.3582ZM59.1207 42.6841H59.7365V18.2572H59.1207H58.5049V42.6841H59.1207ZM59.1207 18.2572H59.7365C59.7365 18.2133 59.7433 18.1914 59.7463 18.1836C59.7487 18.1772 59.7516 18.172 59.7594 18.1642L59.3239 17.7288L58.8885 17.2934C58.622 17.5599 58.5049 17.9005 58.5049 18.2572H59.1207ZM59.3239 17.7288L59.7594 18.1642C59.8142 18.1094 59.8502 18.1008 59.8929 18.1008V17.4849V16.8691C59.5022 16.8691 59.1588 17.0231 58.8885 17.2934L59.3239 17.7288ZM59.8929 17.4849V18.1008H69.7288V17.4849V16.8691H59.8929V17.4849ZM69.7288 17.4849V18.1008C69.7715 18.1008 69.8075 18.1094 69.8623 18.1642L70.2978 17.7288L70.7332 17.2934C70.4629 17.0231 70.1195 16.8691 69.7288 16.8691V17.4849ZM70.2978 17.7288L69.9035 18.2019C69.913 18.2098 69.9177 18.2152 69.9195 18.2176C69.9205 18.2188 69.921 18.2196 69.9212 18.2199C69.9214 18.2202 69.9215 18.2204 69.9215 18.2206C69.9216 18.2207 69.9218 18.2211 69.9221 18.222C69.9223 18.2229 69.9228 18.2245 69.9233 18.227C69.9244 18.2319 69.9258 18.2416 69.9258 18.2572H70.5416H71.1574C71.1574 17.8628 70.9989 17.5114 70.692 17.2557L70.2978 17.7288ZM70.5416 18.2572H69.9258V42.8873H70.5416H71.1574V18.2572H70.5416ZM70.5416 42.8873H69.9258C69.9258 43.7739 70.026 44.6237 70.2287 45.4347L70.8261 45.2853L71.4236 45.136C71.247 44.4296 71.1574 43.6807 71.1574 42.8873H70.5416ZM70.8261 45.2853L70.2357 45.4603C70.4718 46.2571 70.8392 47.019 71.333 47.7451L71.8422 47.3988L72.3515 47.0525C71.924 46.4238 71.614 45.7767 71.4166 45.1104L70.8261 45.2853ZM71.8422 47.3988L71.333 47.7451C71.8624 48.5236 72.6015 49.1321 73.5249 49.5789L73.7931 49.0245L74.0614 48.4702C73.3048 48.1042 72.7433 47.6288 72.3515 47.0525L71.8422 47.3988ZM73.7931 49.0245L73.5397 49.5858C74.4739 50.0077 75.5388 50.2094 76.7195 50.2094V49.5936V48.9777C75.6783 48.9777 74.7923 48.8001 74.0466 48.4633L73.7931 49.0245ZM76.7195 49.5936V50.2094C77.9002 50.2094 78.965 50.0077 79.8993 49.5858L79.6458 49.0245L79.3924 48.4633C78.6467 48.8001 77.7606 48.9777 76.7195 48.9777V49.5936ZM79.6458 49.0245L79.9141 49.5789C80.8398 49.131 81.5706 48.5185 82.0748 47.7308L81.5561 47.3988L81.0374 47.0668C80.6745 47.6339 80.1319 48.1053 79.3776 48.4702L79.6458 49.0245ZM81.5561 47.3988L82.0653 47.7451C82.5591 47.019 82.9265 46.2571 83.1626 45.4603L82.5722 45.2853L81.9818 45.1104C81.7843 45.7767 81.4744 46.4238 81.0469 47.0525L81.5561 47.3988ZM82.5722 45.2853L83.1643 45.4545C83.3978 44.6374 83.5132 43.7808 83.5132 42.8873H82.8974H82.2815C82.2815 43.6738 82.1801 44.4159 81.9801 45.1161L82.5722 45.2853ZM82.8974 42.8873H83.5132V18.2572H82.8974H82.2815V42.8873H82.8974ZM82.8974 18.2572H83.5132C83.5132 18.2133 83.5199 18.1914 83.5229 18.1836C83.5254 18.1772 83.5282 18.172 83.536 18.1642L83.1006 17.7288L82.6651 17.2934C82.3986 17.5599 82.2815 17.9005 82.2815 18.2572H82.8974ZM83.1006 17.7288L83.536 18.1642C83.5909 18.1094 83.6268 18.1008 83.6696 18.1008V17.4849V16.8691C83.2788 16.8691 82.9354 17.0231 82.6651 17.2934L83.1006 17.7288ZM83.6696 17.4849V18.1008H93.5054V17.4849V16.8691H83.6696V17.4849ZM118.604 18.7043L118.381 19.2781L118.39 19.2815L118.604 18.7043ZM124.213 22.2809L123.781 22.7201L123.789 22.7272L124.213 22.2809ZM128.074 28.6213L128.656 28.4195V28.4195L128.074 28.6213ZM128.074 46.9924L128.656 47.1942V47.1942L128.074 46.9924ZM124.213 53.3328L123.789 52.8864L123.781 52.8937L124.213 53.3328ZM118.604 56.9095L118.39 56.3322L118.381 56.3356L118.604 56.9095ZM95.6811 57.8849L96.1165 57.4495V57.4495L95.6811 57.8849ZM95.6811 17.7288L95.2457 17.2934V17.2934L95.6811 17.7288ZM115.475 45.8137L115.019 45.3994V45.3994L115.475 45.8137ZM115.475 29.7187L115.019 30.133V30.133L115.475 29.7187ZM111.695 17.4849V18.1008C114.148 18.1008 116.374 18.4962 118.381 19.2781L118.604 18.7043L118.828 18.1304C116.662 17.2865 114.282 16.8691 111.695 16.8691V17.4849ZM118.604 18.7043L118.39 19.2815C120.421 20.0367 122.217 21.1815 123.781 22.72L124.213 22.2809L124.645 21.8418C122.958 20.183 121.015 18.9434 118.819 18.127L118.604 18.7043ZM124.213 22.2809L123.789 22.7272C125.356 24.2171 126.596 26.2394 127.492 28.8232L128.074 28.6213L128.656 28.4195C127.71 25.6925 126.376 23.4879 124.637 21.8346L124.213 22.2809ZM128.074 28.6213L127.492 28.8232C128.387 31.4005 128.84 34.3918 128.84 37.8069H129.456H130.072C130.072 34.2853 129.604 31.153 128.656 28.4195L128.074 28.6213ZM129.456 37.8069H128.84C128.84 41.2219 128.387 44.2132 127.492 46.7905L128.074 46.9924L128.656 47.1942C129.604 44.4607 130.072 41.3284 130.072 37.8069H129.456ZM128.074 46.9924L127.492 46.7905C126.596 49.3743 125.356 51.3966 123.789 52.8865L124.213 53.3328L124.637 53.7791C126.376 52.1258 127.71 49.9212 128.656 47.1942L128.074 46.9924ZM124.213 53.3328L123.781 52.8937C122.217 54.4322 120.421 55.577 118.39 56.3322L118.604 56.9095L118.819 57.4867C121.015 56.6703 122.958 55.4307 124.645 53.7719L124.213 53.3328ZM118.604 56.9095L118.381 56.3356C116.374 57.1175 114.148 57.513 111.695 57.513V58.1288V58.7446C114.282 58.7446 116.662 58.3272 118.828 57.4833L118.604 56.9095ZM111.695 58.1288V57.513H96.2908V58.1288V58.7446H111.695V58.1288ZM96.2908 58.1288V57.513C96.1992 57.513 96.1561 57.489 96.1165 57.4495L95.6811 57.8849L95.2457 58.3204C95.5313 58.606 95.8946 58.7446 96.2908 58.7446V58.1288ZM95.6811 57.8849L96.1165 57.4495C96.1157 57.4486 96.1151 57.4479 96.1144 57.4468C96.1136 57.4455 96.1114 57.4417 96.1086 57.4339C96.1029 57.4179 96.0937 57.3817 96.0937 57.3159H95.4779H94.8621C94.8621 57.6763 94.9654 58.0401 95.2457 58.3204L95.6811 57.8849ZM95.4779 57.3159H96.0937V18.2978H95.4779H94.8621V57.3159H95.4779ZM95.4779 18.2978H96.0937C96.0937 18.2321 96.1029 18.1958 96.1086 18.1798C96.1114 18.172 96.1136 18.1682 96.1144 18.167C96.1151 18.1658 96.1157 18.1651 96.1165 18.1642L95.6811 17.7288L95.2457 17.2934C94.9654 17.5737 94.8621 17.9374 94.8621 18.2978H95.4779ZM95.6811 17.7288L96.1165 18.1642C96.1561 18.1247 96.1992 18.1008 96.2908 18.1008V17.4849V16.8691C95.8946 16.8691 95.5313 17.0077 95.2457 17.2934L95.6811 17.7288ZM96.2908 17.4849V18.1008H111.695V17.4849V16.8691H96.2908V17.4849ZM109.134 48.4962V49.112C111.894 49.112 114.178 48.1552 115.93 46.2279L115.475 45.8137L115.019 45.3994C113.52 47.0488 111.577 47.8804 109.134 47.8804V48.4962ZM115.475 45.8137L115.93 46.2279C117.699 44.2823 118.529 41.424 118.529 37.7662H117.913H117.297C117.297 41.2617 116.502 43.7684 115.019 45.3994L115.475 45.8137ZM117.913 37.7662H118.529C118.529 34.1084 117.699 31.2501 115.93 29.3045L115.475 29.7187L115.019 30.133C116.502 31.764 117.297 34.2707 117.297 37.7662H117.913ZM115.475 29.7187L115.93 29.3045C114.178 27.3772 111.894 26.4204 109.134 26.4204V27.0362V27.6521C111.577 27.6521 113.52 28.4836 115.019 30.133L115.475 29.7187ZM109.134 27.0362V26.4204H107.265V27.0362V27.6521H109.134V27.0362ZM107.265 27.0362V26.4204C107.03 26.4204 106.746 26.4886 106.533 26.7259C106.33 26.9509 106.283 27.2274 106.283 27.4427H106.899H107.515C107.515 27.387 107.529 27.4603 107.448 27.5498C107.356 27.6516 107.255 27.6521 107.265 27.6521V27.0362ZM106.899 27.4427H106.283V48.1304H106.899H107.515V27.4427H106.899ZM106.899 48.1304H106.283C106.283 48.3472 106.338 48.623 106.555 48.8402C106.772 49.0574 107.048 49.112 107.265 49.112V48.4962V47.8804C107.238 47.8804 107.33 47.874 107.426 47.9693C107.521 48.0645 107.515 48.1574 107.515 48.1304H106.899ZM107.265 48.4962V49.112H109.134V48.4962V47.8804H107.265V48.4962ZM130.887 57.8849L131.323 57.4495V57.4495L130.887 57.8849ZM130.887 17.7288L130.452 17.2934V17.2934L130.887 17.7288ZM141.861 17.7288L141.426 18.1642L141.445 18.184L141.467 18.2019L141.861 17.7288ZM141.861 57.8849L141.467 57.4118L141.445 57.4297L141.426 57.4495L141.861 57.8849ZM141.292 58.1288V57.513H131.497V58.1288V58.7446H141.292V58.1288ZM131.497 58.1288V57.513C131.405 57.513 131.362 57.489 131.323 57.4495L130.887 57.8849L130.452 58.3204C130.737 58.606 131.101 58.7446 131.497 58.7446V58.1288ZM130.887 57.8849L131.323 57.4495C131.322 57.4486 131.321 57.4479 131.321 57.4468C131.32 57.4455 131.318 57.4417 131.315 57.4339C131.309 57.4179 131.3 57.3817 131.3 57.3159H130.684H130.068C130.068 57.6763 130.171 58.0401 130.452 58.3204L130.887 57.8849ZM130.684 57.3159H131.3V18.2978H130.684H130.068V57.3159H130.684ZM130.684 18.2978H131.3C131.3 18.2321 131.309 18.1958 131.315 18.1798C131.318 18.172 131.32 18.1682 131.321 18.167C131.321 18.1658 131.322 18.1651 131.323 18.1642L130.887 17.7288L130.452 17.2934C130.171 17.5737 130.068 17.9374 130.068 18.2978H130.684ZM130.887 17.7288L131.323 18.1642C131.362 18.1247 131.405 18.1008 131.497 18.1008V17.4849V16.8691C131.101 16.8691 130.737 17.0077 130.452 17.2934L130.887 17.7288ZM131.497 17.4849V18.1008H141.292V17.4849V16.8691H131.497V17.4849ZM141.292 17.4849V18.1008C141.335 18.1008 141.371 18.1094 141.426 18.1642L141.861 17.7288L142.297 17.2934C142.026 17.0231 141.683 16.8691 141.292 16.8691V17.4849ZM141.861 17.7288L141.467 18.2019C141.472 18.2064 141.474 18.2092 141.475 18.2101C141.476 18.2109 141.477 18.2122 141.478 18.2152C141.48 18.2208 141.489 18.2444 141.489 18.2978H142.105H142.721C142.721 17.9023 142.581 17.5267 142.255 17.2557L141.861 17.7288ZM142.105 18.2978H141.489V57.3159H142.105H142.721V18.2978H142.105ZM142.105 57.3159H141.489C141.489 57.3694 141.48 57.3929 141.478 57.3985C141.477 57.4015 141.476 57.4028 141.475 57.4036C141.474 57.4045 141.472 57.4073 141.467 57.4118L141.861 57.8849L142.255 58.358C142.581 58.087 142.721 57.7114 142.721 57.3159H142.105ZM141.861 57.8849L141.426 57.4495C141.371 57.5043 141.335 57.513 141.292 57.513V58.1288V58.7446C141.683 58.7446 142.026 58.5906 142.297 58.3204L141.861 57.8849ZM156.435 18.5823L156.672 19.1504L156.677 19.1483L156.435 18.5823ZM173.139 18.5823L172.897 19.1484L172.902 19.1504L173.139 18.5823ZM180.008 23.0938L180.44 22.6553V22.6553L180.008 23.0938ZM184.601 29.8813L184.036 30.126L184.037 30.1281L184.601 29.8813ZM184.601 46.3421L185.166 46.5867V46.5867L184.601 46.3421ZM180.008 53.1296L180.44 53.5681V53.5681L180.008 53.1296ZM173.139 57.641L172.902 57.0729V57.0729L173.139 57.641ZM156.435 57.641L156.197 58.2091V58.2091L156.435 57.641ZM149.566 53.1296L149.134 53.5681V53.5681L149.566 53.1296ZM144.973 46.3421L145.538 46.0974L144.973 46.3421ZM144.973 29.8813L145.537 30.1281L145.538 30.126L144.973 29.8813ZM149.566 23.0938L149.134 22.6553V22.6553L149.566 23.0938ZM157.817 44.9602L158.249 44.5216V44.5216L157.817 44.9602ZM171.757 44.9602L171.325 44.5216V44.5216L171.757 44.9602ZM171.757 31.2226L172.19 30.784L171.757 31.2226ZM157.817 31.2226L157.384 30.784L157.817 31.2226ZM156.435 18.5823L156.677 19.1483C159.256 18.0433 161.951 17.4911 164.767 17.4911V16.8753V16.2595C161.784 16.2595 158.924 16.8453 156.192 18.0163L156.435 18.5823ZM164.767 16.8753V17.4911C167.611 17.4911 170.319 18.0436 172.897 19.1483L173.139 18.5823L173.382 18.0163C170.649 16.845 167.775 16.2595 164.767 16.2595V16.8753ZM173.139 18.5823L172.902 19.1504C175.489 20.233 177.712 21.6944 179.576 23.5323L180.008 23.0938L180.44 22.6553C178.457 20.6998 176.1 19.1535 173.377 18.0142L173.139 18.5823ZM180.008 23.0938L179.576 23.5323C181.44 25.3702 182.927 27.5658 184.036 30.126L184.601 29.8813L185.166 29.6366C183.999 26.9402 182.424 24.6108 180.44 22.6553L180.008 23.0938ZM184.601 29.8813L184.037 30.1281C185.14 32.6506 185.692 35.3031 185.692 38.0914H186.308H186.924C186.924 35.1353 186.338 32.3144 185.165 29.6345L184.601 29.8813ZM186.308 38.0914H185.692C185.692 40.8796 185.14 43.5465 184.036 46.0974L184.601 46.3421L185.166 46.5867C186.338 43.881 186.924 41.0474 186.924 38.0914H186.308ZM184.601 46.3421L184.036 46.0974C182.927 48.6576 181.44 50.8531 179.576 52.6911L180.008 53.1296L180.44 53.5681C182.424 51.6126 183.999 49.2832 185.166 46.5867L184.601 46.3421ZM180.008 53.1296L179.576 52.6911C177.712 54.529 175.489 55.9904 172.902 57.0729L173.139 57.641L173.377 58.2091C176.1 57.0699 178.457 55.5236 180.44 53.5681L180.008 53.1296ZM173.139 57.641L172.902 57.0729C170.323 58.1518 167.613 58.6916 164.767 58.6916V59.3074V59.9233C167.773 59.9233 170.645 59.3521 173.377 58.2091L173.139 57.641ZM164.767 59.3074V58.6916C161.948 58.6916 159.252 58.1521 156.672 57.0729L156.435 57.641L156.197 58.2091C158.928 59.3518 161.786 59.9233 164.767 59.9233V59.3074ZM156.435 57.641L156.672 57.0729C154.085 55.9904 151.862 54.529 149.998 52.6911L149.566 53.1296L149.134 53.5681C151.117 55.5236 153.474 57.0699 156.197 58.2091L156.435 57.641ZM149.566 53.1296L149.998 52.6911C148.134 50.8531 146.647 48.6576 145.538 46.0974L144.973 46.3421L144.408 46.5867C145.576 49.2832 147.15 51.6126 149.134 53.5681L149.566 53.1296ZM144.973 46.3421L145.538 46.0974C144.434 43.5465 143.882 40.8796 143.882 38.0914H143.266H142.65C142.65 41.0474 143.236 43.881 144.408 46.5867L144.973 46.3421ZM143.266 38.0914H143.882C143.882 35.3031 144.434 32.6506 145.537 30.1281L144.973 29.8813L144.409 29.6345C143.236 32.3144 142.65 35.1353 142.65 38.0914H143.266ZM144.973 29.8813L145.538 30.126C146.647 27.5658 148.134 25.3702 149.998 23.5323L149.566 23.0938L149.134 22.6553C147.15 24.6108 145.576 26.9402 144.408 29.6366L144.973 29.8813ZM149.566 23.0938L149.998 23.5323C151.862 21.6944 154.085 20.233 156.672 19.1504L156.435 18.5823L156.197 18.0142C153.474 19.1535 151.117 20.6998 149.134 22.6553L149.566 23.0938ZM157.817 44.9602L157.384 45.3987C159.424 47.4094 161.896 48.421 164.767 48.421V47.8052V47.1894C162.218 47.1894 160.057 46.3044 158.249 44.5216L157.817 44.9602ZM164.767 47.8052V48.421C167.663 48.421 170.149 47.4106 172.19 45.3987L171.757 44.9602L171.325 44.5216C169.518 46.3031 167.344 47.1894 164.767 47.1894V47.8052ZM171.757 44.9602L172.19 45.3987C174.23 43.3872 175.259 40.94 175.259 38.0914H174.643H174.027C174.027 40.6077 173.132 42.7397 171.325 44.5216L171.757 44.9602ZM174.643 38.0914H175.259C175.259 35.2427 174.23 32.7955 172.19 30.784L171.757 31.2226L171.325 31.6611C173.132 33.443 174.027 35.575 174.027 38.0914H174.643ZM171.757 31.2226L172.19 30.784C170.149 28.7721 167.663 27.7617 164.767 27.7617V28.3775V28.9933C167.344 28.9933 169.518 29.8796 171.325 31.6611L171.757 31.2226ZM164.767 28.3775V27.7617C161.896 27.7617 159.424 28.7733 157.384 30.784L157.817 31.2226L158.249 31.6611C160.057 29.8783 162.218 28.9933 164.767 28.9933V28.3775ZM157.817 31.2226L157.384 30.784C155.344 32.7955 154.315 35.2427 154.315 38.0914H154.931H155.547C155.547 35.575 156.442 33.443 158.249 31.6611L157.817 31.2226ZM154.931 38.0914H154.315C154.315 40.94 155.344 43.3872 157.384 45.3987L157.817 44.9602L158.249 44.5216C156.442 42.7397 155.547 40.6077 155.547 38.0914H154.931Z" fill="#5F5D5D" mask="url(#path-1-outside-1_2002_297)"/>
<path d="M227.108 17.6882C227.243 17.5527 227.419 17.4849 227.636 17.4849H237.96C238.176 17.4849 238.353 17.5662 238.488 17.7288C238.651 17.8643 238.732 18.054 238.732 18.2978V57.3159C238.732 57.5598 238.651 57.7494 238.488 57.8849C238.353 58.0475 238.176 58.1288 237.96 58.1288H228.124C227.907 58.1288 227.717 58.0475 227.555 57.8849C227.419 57.7494 227.352 57.5598 227.352 57.3159V37.6036L224.303 50.3252C224.222 50.7316 223.965 50.9348 223.531 50.9348H213.289C212.855 50.9348 212.598 50.7316 212.517 50.3252L209.509 37.6036V57.3159C209.509 57.5598 209.428 57.7494 209.265 57.8849C209.103 58.0475 208.913 58.1288 208.696 58.1288H198.901C198.657 58.1288 198.454 58.0475 198.291 57.8849C198.156 57.7494 198.088 57.5598 198.088 57.3159V18.2978C198.088 18.054 198.156 17.8643 198.291 17.7288C198.454 17.5662 198.657 17.4849 198.901 17.4849H209.184C209.401 17.4849 209.577 17.5527 209.712 17.6882C210.823 18.7991 212.097 20.8042 213.533 23.7034C214.996 26.5756 216.175 29.1904 217.069 31.5477L218.41 35.0431C218.546 34.6908 218.735 34.2031 218.979 33.5799C219.223 32.9296 219.697 31.7645 220.402 30.0845C221.106 28.3775 221.783 26.8059 222.434 25.3698C223.111 23.9338 223.883 22.4706 224.75 20.9803C225.618 19.49 226.403 18.3927 227.108 17.6882ZM250.57 58.1288H240.775C240.531 58.1288 240.328 58.0475 240.166 57.8849C240.03 57.7494 239.962 57.5598 239.962 57.3159V18.2978C239.962 18.054 240.03 17.8643 240.166 17.7288C240.328 17.5662 240.531 17.4849 240.775 17.4849H250.57C250.787 17.4849 250.977 17.5662 251.139 17.7288C251.302 17.8643 251.383 18.054 251.383 18.2978V57.3159C251.383 57.5598 251.302 57.7494 251.139 57.8849C250.977 58.0475 250.787 58.1288 250.57 58.1288ZM276.931 18.2978C276.931 18.054 276.999 17.8643 277.134 17.7288C277.297 17.5662 277.486 17.4849 277.703 17.4849H287.539C287.756 17.4849 287.945 17.5662 288.108 17.7288C288.27 17.8643 288.352 18.054 288.352 18.2978V57.3159C288.352 57.5327 288.27 57.7223 288.108 57.8849C287.945 58.0475 287.756 58.1288 287.539 58.1288H277.378C277.08 58.1288 276.85 57.9933 276.687 57.7223L263.965 35.2056V57.3159C263.965 57.5598 263.884 57.7494 263.722 57.8849C263.559 58.0475 263.369 58.1288 263.153 58.1288H253.357C253.114 58.1288 252.91 58.0475 252.748 57.8849C252.612 57.7494 252.544 57.5598 252.544 57.3159V18.2978C252.544 18.054 252.612 17.8643 252.748 17.7288C252.91 17.5662 253.114 17.4849 253.357 17.4849H263.518C263.816 17.4849 264.033 17.6069 264.169 17.8507L276.931 38.3759V18.2978ZM314.736 17.4849C315.088 17.4849 315.332 17.6611 315.467 18.0133L329.855 56.8282C329.883 56.9095 329.896 56.9907 329.896 57.072V57.3565C329.896 57.5733 329.815 57.7494 329.652 57.8849C329.517 58.0475 329.341 58.1288 329.124 58.1288H319.125C318.746 58.1288 318.502 57.9526 318.394 57.6004L316.24 51.7883H303.234L301.039 57.6004C300.931 57.9526 300.687 58.1288 300.307 58.1288H290.35C290.106 58.1288 289.903 58.0475 289.74 57.8849C289.604 57.7494 289.537 57.5733 289.537 57.3565V57.072C289.537 56.9907 289.55 56.8959 289.577 56.7875L303.965 18.0133C304.101 17.6611 304.345 17.4849 304.697 17.4849H314.736ZM306.932 41.7899H312.541L309.696 34.2708L306.932 41.7899ZM355.398 57.3159C355.398 57.5598 355.316 57.7494 355.154 57.8849C355.018 58.0475 354.842 58.1288 354.625 58.1288H331.946C331.702 58.1288 331.499 58.0475 331.336 57.8849C331.201 57.7494 331.133 57.5598 331.133 57.3159V18.2978C331.133 18.054 331.201 17.8643 331.336 17.7288C331.499 17.5662 331.702 17.4849 331.946 17.4849H341.741C341.958 17.4849 342.148 17.5662 342.31 17.7288C342.473 17.8643 342.554 18.054 342.554 18.2978V48.6588H354.585C354.828 48.6588 355.018 48.74 355.154 48.9026C355.316 49.0381 355.398 49.2278 355.398 49.4716V57.3159ZM396.185 33.2547C396.402 33.2547 396.578 33.336 396.714 33.4986C396.876 33.6612 396.958 33.8509 396.958 34.0676V38.0914C396.958 40.9635 396.389 43.7138 395.251 46.3421C394.113 48.9704 392.582 51.2329 390.658 53.1296C388.761 55.0263 386.472 56.5301 383.789 57.641C381.134 58.752 378.343 59.3074 375.416 59.3074C372.517 59.3074 369.74 58.752 367.085 57.641C364.429 56.5301 362.14 55.0263 360.216 53.1296C358.292 51.2329 356.761 48.9704 355.623 46.3421C354.485 43.7138 353.916 40.9635 353.916 38.0914C353.916 35.2192 354.485 32.4825 355.623 29.8813C356.761 27.253 358.292 24.9905 360.216 23.0938C362.14 21.1971 364.429 19.6933 367.085 18.5823C369.74 17.4443 372.531 16.8753 375.457 16.8753C378.898 16.8753 382.109 17.634 385.09 19.1513C388.097 20.6416 390.59 22.6873 392.568 25.2886C392.704 25.4511 392.758 25.6408 392.731 25.8576C392.704 26.0743 392.609 26.2505 392.446 26.3859L384.236 32.5638C384.074 32.6993 383.884 32.7535 383.667 32.7264C383.45 32.6993 383.274 32.5909 383.139 32.4012C382.245 31.1548 381.107 30.1794 379.725 29.4749C378.343 28.7433 376.853 28.3775 375.254 28.3775C372.544 28.3775 370.228 29.3258 368.304 31.2226C366.407 33.1193 365.459 35.4089 365.459 38.0914C365.459 40.7739 366.407 43.0635 368.304 44.9602C370.228 46.8569 372.544 47.8052 375.254 47.8052C377.015 47.8052 378.641 47.3717 380.131 46.5046C381.649 45.6105 382.841 44.4318 383.708 42.9686H374.116C373.899 42.9686 373.709 42.8873 373.547 42.7248C373.384 42.5622 373.303 42.3725 373.303 42.1557V34.0676C373.303 33.8509 373.384 33.6612 373.547 33.4986C373.709 33.336 373.899 33.2547 374.116 33.2547H396.185Z" fill="#9A9A9A"/>
</svg>
